<svg width="256" height="256" viewBox="0 0 256 256" fill="none" xmlns="http://www.w3.org/2000/svg">
<path d="M232.629 83.305C225.198 74.649 220.306 64.127 218.02 52.951C216.081 43.474 211.972 35.2505 205.539 28.8175C176.153 -0.569004 109.407 18.5315 56.4586 71.48C3.5101 124.429 -15.5904 191.174 13.7961 220.561C27.7646 234.529 50.1746 237.538 75.5306 231.167C90.2571 227.466 105.797 229.023 119.676 235.182C131.277 240.329 144.075 243.268 157.538 243.464C210.376 244.236 254.412 202.189 255.957 149.367C256.697 124.114 247.78 100.955 232.629 83.305Z" fill="url(#paint0_linear)"/>
<g opacity="0.1">
<g opacity="0.1">
<path opacity="0.1" d="M140.217 56.602C139.775 56.602 139.328 56.485 138.923 56.239C135.633 54.2435 131.856 53.1885 128 53.1885C124.144 53.1885 120.367 54.243 117.078 56.239C115.897 56.9555 114.359 56.579 113.644 55.398C112.928 54.2175 113.304 52.68 114.485 51.964C118.556 49.494 123.23 48.1885 128 48.1885C132.771 48.1885 137.444 49.494 141.516 51.964C142.696 52.68 143.073 54.2175 142.357 55.398C141.886 56.173 141.062 56.602 140.217 56.602Z" fill="#0000CC"/>
</g>
<g opacity="0.1">
<path opacity="0.1" d="M133.196 64.7204C132.755 64.7204 132.307 64.6034 131.902 64.3574C129.553 62.9319 126.449 62.9319 124.099 64.3574C122.919 65.0744 121.381 64.6974 120.665 63.5164C119.949 62.3354 120.326 60.7984 121.506 60.0824C123.463 58.8954 125.709 58.2679 128.001 58.2679C130.293 58.2679 132.539 58.8954 134.496 60.0824C135.677 60.7984 136.053 62.3359 135.337 63.5164C134.866 64.2914 134.041 64.7204 133.196 64.7204Z" fill="#0000CC"/>
</g>
<g opacity="0.1">
<path opacity="0.1" d="M146.712 48.06C146.27 48.06 145.823 47.943 145.418 47.697C140.172 44.515 134.149 42.8325 128 42.8325C121.851 42.8325 115.828 44.5145 110.583 47.697C109.402 48.4135 107.865 48.037 107.149 46.856C106.433 45.6755 106.809 44.138 107.99 43.422C114.017 39.7655 120.937 37.8325 128 37.8325C135.063 37.8325 141.983 39.7655 148.011 43.422C149.191 44.138 149.568 45.6755 148.852 46.856C148.382 47.631 147.557 48.06 146.712 48.06Z" fill="#0000CC"/>
</g>
</g>
<g opacity="0.1">
<path opacity="0.1" d="M155.125 78.672H100.875C95.352 78.672 90.875 83.149 90.875 88.672V190.969C90.875 196.492 95.352 200.969 100.875 200.969H155.125C160.648 200.969 165.125 196.492 165.125 190.969V88.672C165.125 83.1495 160.648 78.672 155.125 78.672Z" fill="#0000CC"/>
<path opacity="0.1" d="M97.8335 120.732H59.5V67.443L77.5735 60.5125V35.433L57 27.5435L36.4265 35.433V60.5125L54.5 67.443V123.232C54.5 124.612 55.6195 125.732 57 125.732H97.8335V120.732Z" fill="#0000CC"/>
<path opacity="0.1" d="M201.5 204.553V148.764C201.5 147.383 200.381 146.264 199 146.264H157.834V151.264H196.5V204.553L178.427 211.483V236.563L199 244.452L219.574 236.563V211.483L201.5 204.553Z" fill="#0000CC"/>
</g>
<path d="M155.125 187.469H100.875C95.352 187.469 90.875 182.992 90.875 177.469V75.172C90.875 69.649 95.352 65.172 100.875 65.172H155.125C160.648 65.172 165.125 69.649 165.125 75.172V177.469C165.125 182.992 160.648 187.469 155.125 187.469V187.469Z" fill="#0000FF"/>
<path d="M114.333 187.469H102.667V159.849C102.667 158.469 103.786 157.349 105.167 157.349H111.833C113.214 157.349 114.333 158.469 114.333 159.849V187.469Z" fill="#8383FF"/>
<path d="M153.333 187.469H141.667V159.849C141.667 158.469 142.786 157.349 144.167 157.349H150.833C152.214 157.349 153.333 158.469 153.333 159.849V187.469Z" fill="#8383FF"/>
<path d="M138.666 65.172V68.154C138.666 74.045 133.891 78.8205 128 78.8205C122.109 78.8205 117.333 74.045 117.333 68.154V65.172H138.666Z" fill="#27D6FD"/>
<path d="M142.936 115.001L130.145 93.6575C129.174 92.0375 126.827 92.0375 125.856 93.6575L113.065 115.001C112.066 116.668 113.266 118.786 115.209 118.786H140.792C142.734 118.786 143.935 116.667 142.936 115.001V115.001Z" fill="white"/>
<path d="M36.4265 47.0125V21.933L57 14.0435L77.5735 21.933V47.0125H36.4265Z" fill="#27D6FD"/>
<path d="M57 47.0125H36.4265V21.933L57 14.0435V47.0125Z" fill="#27D6FD"/>
<path d="M57 54.9015L77.5735 47.0125L57 39.123L36.4265 47.0125L57 54.9015Z" fill="#27D6FD"/>
<path d="M113.064 129.995L125.856 151.339C126.827 152.959 129.174 152.959 130.144 151.339L142.936 129.995C143.934 128.329 142.734 126.21 140.791 126.21H115.208C113.266 126.21 112.066 128.329 113.064 129.995Z" fill="white"/>
<path d="M219.574 197.984V223.064L199 230.953L178.427 223.064V197.984H219.574Z" fill="#BBF1FF"/>
<path d="M199 197.984H219.574V223.064L199 230.953V197.984Z" fill="#00CCFF"/>
<path d="M199 190.094L178.427 197.984L199 205.873L219.574 197.984L199 190.094Z" fill="#0099FF"/>
<path d="M124.5 184.969H100.875C96.7395 184.969 93.375 181.605 93.375 177.469V126.732C93.375 125.351 92.2555 124.232 90.875 124.232C89.4945 124.232 88.375 125.351 88.375 126.732V177.469C88.375 184.361 93.9825 189.969 100.875 189.969H124.5C125.88 189.969 127 188.849 127 187.469C127 186.088 125.88 184.969 124.5 184.969Z" fill="#0000CC"/>
<path d="M140.217 43.102C141.062 43.102 141.886 42.6735 142.357 41.898C143.073 40.7175 142.696 39.18 141.516 38.464C137.444 35.994 132.771 34.6885 128 34.6885C123.23 34.6885 118.556 35.994 114.485 38.464C113.304 39.18 112.928 40.7175 113.644 41.898C114.36 43.0785 115.897 43.455 117.078 42.739C120.367 40.7435 124.144 39.6885 128 39.6885C131.856 39.6885 135.633 40.743 138.923 42.739C139.328 42.9845 139.775 43.102 140.217 43.102V43.102Z" fill="#0000CC"/>
<path d="M128 44.768C125.708 44.768 123.462 45.3955 121.505 46.5825C120.325 47.2985 119.948 48.836 120.664 50.0165C121.38 51.1975 122.918 51.574 124.098 50.8575C126.448 49.432 129.552 49.432 131.901 50.8575C132.307 51.1035 132.754 51.2205 133.195 51.2205C134.04 51.2205 134.865 50.792 135.335 50.0165C136.051 48.836 135.675 47.2985 134.494 46.5825C132.538 45.3955 130.292 44.768 128 44.768Z" fill="#0000CC"/>
<path d="M110.583 34.197C115.828 31.015 121.851 29.3325 128 29.3325C134.149 29.3325 140.172 31.0145 145.418 34.197C145.823 34.443 146.27 34.56 146.712 34.56C147.557 34.56 148.381 34.1315 148.852 33.356C149.568 32.1755 149.191 30.638 148.011 29.922C141.983 26.2655 135.064 24.3325 128 24.3325C120.937 24.3325 114.017 26.2655 107.99 29.922C106.809 30.638 106.433 32.1755 107.149 33.356C107.865 34.5365 109.402 34.914 110.583 34.197V34.197Z" fill="#0000CC"/>
<path d="M222.028 197.531C221.874 196.69 221.27 195.956 220.469 195.649L201.5 188.375V135.264C201.5 133.883 200.381 132.764 199 132.764H167.625V75.172C167.625 68.2795 162.018 62.672 155.125 62.672H100.875C93.9825 62.672 88.375 68.2795 88.375 75.172V107.232H59.5V56.6205L78.469 49.3465C79.416 48.984 80.074 48.0265 80.074 47.0125V21.933C80.074 20.8975 79.436 19.9695 78.469 19.599L57.895 11.7095C57.332 11.4935 56.668 11.4935 56.105 11.7095L35.5315 19.5985C34.5645 19.969 33.9265 20.8975 33.9265 21.9325V47.012C33.9265 48.025 34.5855 48.984 35.5315 49.346L54.5 56.6205V109.732C54.5 111.112 55.6195 112.232 57 112.232H128C129.381 112.232 130.5 111.112 130.5 109.732C130.5 108.351 129.381 107.232 128 107.232H93.375V75.172C93.375 71.0365 96.7395 67.672 100.875 67.672H155.125C159.261 67.672 162.625 71.0365 162.625 75.172V132.764H128C126.62 132.764 125.5 133.883 125.5 135.264C125.5 136.644 126.62 137.764 128 137.764H162.625V177.469C162.625 181.604 159.261 184.969 155.125 184.969H141.5C140.12 184.969 139 186.088 139 187.469C139 188.849 140.12 189.969 141.5 189.969H155.125C162.018 189.969 167.625 184.361 167.625 177.469V137.764H196.5V188.375L177.531 195.649C176.584 196.012 175.926 196.969 175.926 197.983V223.063C175.926 224.098 176.564 225.026 177.531 225.397L198.105 233.286C198.675 233.505 199.324 233.505 199.895 233.286L220.468 225.397C221.435 225.026 222.073 224.098 222.073 223.063V197.983C222.074 197.83 222.056 197.679 222.028 197.531V197.531ZM75.0735 43.376L59.5 37.404V17.6795L75.0735 23.6515V43.376ZM54.5 17.6795V37.404L38.9265 43.376V23.6515L54.5 17.6795ZM43.4085 47.0125L57 41.8005L70.5915 47.0125L59.5 51.2655V49.1275C59.5 47.747 58.3805 46.6275 57 46.6275C55.6195 46.6275 54.5 47.747 54.5 49.1275V51.2655L43.4085 47.0125ZM196.5 193.73V195.868C196.5 197.249 197.62 198.368 199 198.368C200.381 198.368 201.5 197.249 201.5 195.868V193.73L212.592 197.983L199 203.196L185.409 197.984L196.5 193.73ZM180.927 201.62L196.5 207.592V227.316L180.927 221.344V201.62ZM201.5 227.316V207.592L217.074 201.62V221.344L201.5 227.316Z" fill="#0000CC"/>
<path d="M53.775 175.816C53.135 175.816 52.4955 175.572 52.007 175.084L46.507 169.584C45.5305 168.608 45.5305 167.025 46.507 166.049L52.007 160.549C52.9835 159.573 54.566 159.573 55.5425 160.549L61.0425 166.049C62.019 167.025 62.019 168.608 61.0425 169.584L55.5425 175.084C55.0545 175.572 54.415 175.816 53.775 175.816ZM51.8105 167.816L53.775 169.781L55.7395 167.816L53.775 165.852L51.8105 167.816Z" fill="#590BB2"/>
<path d="M32.229 75.9215C31.589 75.9215 30.9495 75.6775 30.461 75.1895L24.961 69.6895C23.9845 68.713 23.9845 67.13 24.961 66.154L30.461 60.654C31.4375 59.678 33.02 59.678 33.9965 60.654L39.4965 66.154C40.473 67.1305 40.473 68.7135 39.4965 69.6895L33.9965 75.1895C33.5085 75.6775 32.869 75.9215 32.229 75.9215ZM30.2645 67.9215L32.229 69.886L34.1935 67.9215L32.229 65.957L30.2645 67.9215Z" fill="#590BB2"/>
<path d="M223.771 180.82C223.131 180.82 222.492 180.576 222.003 180.088L216.503 174.588C215.527 173.612 215.527 172.029 216.503 171.053L222.003 165.553C222.98 164.577 224.562 164.577 225.539 165.553L231.039 171.053C232.015 172.029 232.015 173.612 231.039 174.588L225.539 180.088C225.051 180.576 224.411 180.82 223.771 180.82ZM221.807 172.82L223.771 174.785L225.736 172.82L223.771 170.856L221.807 172.82Z" fill="#4747F5"/>
<path d="M190.052 108.114C186.465 108.114 183.546 105.196 183.546 101.608C183.546 98.021 186.465 95.1025 190.052 95.1025C193.64 95.1025 196.558 98.021 196.558 101.608C196.558 105.196 193.64 108.114 190.052 108.114ZM190.052 100.102C189.222 100.102 188.546 100.778 188.546 101.608C188.546 102.439 189.222 103.114 190.052 103.114C190.883 103.114 191.558 102.439 191.558 101.608C191.558 100.778 190.883 100.102 190.052 100.102Z" fill="#6C6CFF"/>
<defs>
<linearGradient id="paint0_linear" x1="-27" y1="136.5" x2="329.5" y2="136" gradientUnits="userSpaceOnUse">
<stop offset="0.0023" stop-color="#00CCFF"/>
<stop offset="1" stop-color="#84E6FE" stop-opacity="0.45"/>
</linearGradient>
</defs>
</svg>
