<svg width="256" height="256" viewBox="0 0 256 256" fill="none" xmlns="http://www.w3.org/2000/svg">
<path d="M256 128C256 114.184 249.748 101.232 238.827 90.0814C231.227 82.3224 224.9 73.4339 220.07 63.7059C204.626 32.5974 178.293 12.1079 148.402 12.1079C127.16 12.1079 107.717 22.4569 92.7005 39.6094C82.7605 50.9629 70.21 59.6719 56.207 65.2949C22.2875 78.9159 0 101.916 0 128C0 154.083 22.2875 177.084 56.207 190.705C70.21 196.328 82.7605 205.037 92.701 216.39C107.718 233.543 127.161 243.892 148.402 243.892C178.294 243.892 204.626 223.402 220.07 192.294C224.9 182.566 231.227 173.677 238.827 165.918C249.748 154.767 256 141.815 256 128Z" fill="url(#paint0_linear)"/>
<path d="M26.8855 147.121C26.2455 147.121 25.606 146.877 25.1175 146.389L21.8855 143.157L18.6535 146.389C17.677 147.365 16.0945 147.365 15.118 146.389C14.1415 145.413 14.1415 143.83 15.118 142.854L20.118 137.854C21.0945 136.878 22.677 136.878 23.6535 137.854L28.6535 142.854C29.63 143.83 29.63 145.413 28.6535 146.389C28.165 146.877 27.525 147.121 26.8855 147.121Z" fill="#003399"/>
<path d="M241.125 196.653C240.485 196.653 239.845 196.409 239.357 195.921L236.125 192.689L232.893 195.921C231.917 196.897 230.334 196.897 229.357 195.921C228.381 194.945 228.381 193.362 229.357 192.386L234.357 187.386C235.334 186.41 236.917 186.41 237.893 187.386L242.893 192.386C243.87 193.362 243.87 194.945 242.893 195.921C242.405 196.409 241.765 196.653 241.125 196.653Z" fill="#003399"/>
<path d="M14.875 197.333C14.235 197.333 13.5955 197.089 13.107 196.601C12.1305 195.625 12.1305 194.042 13.107 193.066L18.107 188.066C19.0835 187.09 20.666 187.09 21.6425 188.066C22.619 189.042 22.619 190.625 21.6425 191.601L16.6425 196.601C16.1545 197.089 15.515 197.333 14.875 197.333Z" fill="#27D6FD"/>
<path d="M232.625 113.666C231.985 113.666 231.345 113.422 230.857 112.934C229.88 111.958 229.88 110.375 230.857 109.399L235.857 104.399C236.833 103.423 238.416 103.423 239.393 104.399C240.369 105.375 240.369 106.958 239.393 107.934L234.393 112.934C233.905 113.422 233.265 113.666 232.625 113.666Z" fill="#0099FF"/>
<path d="M20.75 75.2109C20.11 75.2109 19.4705 74.9669 18.982 74.4789C18.0055 73.5024 18.0055 71.9194 18.982 70.9434L23.982 65.9434C24.9585 64.9674 26.541 64.9674 27.5175 65.9434C28.494 66.9199 28.494 68.5029 27.5175 69.4789L22.5175 74.4789C22.0295 74.9669 21.39 75.2109 20.75 75.2109Z" fill="#0099FF"/>
<path opacity="0.1" d="M211.476 230.25H45.524C40.264 230.25 36 225.986 36 220.726V45.774C36 40.514 40.264 36.25 45.524 36.25H211.477C216.736 36.25 221.001 40.514 221.001 45.774V220.727C221 225.986 216.736 230.25 211.476 230.25Z" fill="#0000CC"/>
<path d="M211.476 219.75H45.524C40.264 219.75 36 215.486 36 210.226V35.274C36 30.014 40.264 25.75 45.524 25.75H211.477C216.736 25.75 221.001 30.014 221.001 35.274V210.227C221 215.486 216.736 219.75 211.476 219.75Z" fill="white"/>
<path d="M221 53.845V35.274C221 30.014 216.736 25.75 211.476 25.75H45.524C40.264 25.75 36 30.014 36 35.274V53.8455L221 53.845Z" fill="#0099FF"/>
<path d="M211.476 23.25H45.524C38.894 23.25 33.5 28.644 33.5 35.274V53.8455C33.5 55.226 34.6195 56.3455 36 56.3455H218.5V193.226C218.5 194.606 219.62 195.726 221 195.726C222.38 195.726 223.5 194.606 223.5 193.226V35.274C223.5 28.644 218.106 23.25 211.476 23.25ZM38.5 51.345V35.274C38.5 31.401 41.651 28.25 45.524 28.25H211.476C215.349 28.25 218.5 31.401 218.5 35.274V51.3455H38.5V51.345Z" fill="#0000CC"/>
<path d="M221 207.726C219.62 207.726 218.5 208.846 218.5 210.226C218.5 214.099 215.349 217.25 211.476 217.25H45.524C41.651 217.25 38.5 214.099 38.5 210.226V70.8456C38.5 69.4651 37.3805 68.3456 36 68.3456C34.6195 68.3456 33.5 69.4651 33.5 70.8456V210.226C33.5 216.856 38.894 222.25 45.524 222.25H211.476C218.106 222.25 223.5 216.856 223.5 210.226C223.5 208.846 222.38 207.726 221 207.726Z" fill="#0000CC"/>
<path d="M200.25 42.2975H191.99C190.609 42.2975 189.49 41.178 189.49 39.7975C189.49 38.417 190.609 37.2975 191.99 37.2975H200.25C201.631 37.2975 202.75 38.417 202.75 39.7975C202.75 41.178 201.631 42.2975 200.25 42.2975Z" fill="#003399"/>
<path d="M181 42.2975H172.74C171.359 42.2975 170.24 41.178 170.24 39.7975C170.24 38.417 171.359 37.2975 172.74 37.2975H181C182.381 37.2975 183.5 38.417 183.5 39.7975C183.5 41.178 182.381 42.2975 181 42.2975Z" fill="#27D6FD"/>
<path d="M153.25 42.2975H84.99C83.609 42.2975 82.49 41.178 82.49 39.7975C82.49 38.417 83.609 37.2975 84.99 37.2975H153.25C154.631 37.2975 155.75 38.417 155.75 39.7975C155.75 41.178 154.631 42.2975 153.25 42.2975Z" fill="white"/>
<path d="M128.5 207.158C127.119 207.158 126 206.038 126 204.658V189.545C126 188.164 127.119 187.045 128.5 187.045C129.88 187.045 131 188.164 131 189.545V204.658C131 206.039 129.88 207.158 128.5 207.158Z" fill="#D9D9FF"/>
<path d="M64.79 204.658H58.54C57.159 204.658 56.04 203.539 56.04 202.158C56.04 200.778 57.159 199.658 58.54 199.658H64.79C66.171 199.658 67.29 200.778 67.29 202.158C67.29 203.539 66.171 204.658 64.79 204.658Z" fill="#D9D9FF"/>
<path d="M111.29 204.658H75.04C73.659 204.658 72.54 203.539 72.54 202.158C72.54 200.778 73.659 199.658 75.04 199.658H111.29C112.671 199.658 113.79 200.778 113.79 202.158C113.79 203.539 112.671 204.658 111.29 204.658Z" fill="#D9D9FF"/>
<path d="M79.79 194.545H58.54C57.159 194.545 56.04 193.425 56.04 192.045C56.04 190.664 57.159 189.545 58.54 189.545H79.79C81.171 189.545 82.29 190.664 82.29 192.045C82.29 193.425 81.171 194.545 79.79 194.545Z" fill="#D9D9FF"/>
<path d="M198.46 204.658H144.46C143.079 204.658 141.96 203.539 141.96 202.158C141.96 200.778 143.079 199.658 144.46 199.658H198.46C199.841 199.658 200.96 200.778 200.96 202.158C200.96 203.539 199.841 204.658 198.46 204.658Z" fill="#D9D9FF"/>
<path d="M198.46 194.545H144.46C143.079 194.545 141.96 193.425 141.96 192.045C141.96 190.664 143.079 189.545 144.46 189.545H198.46C199.841 189.545 200.96 190.664 200.96 192.045C200.96 193.425 199.841 194.545 198.46 194.545Z" fill="#D9D9FF"/>
<path d="M64.79 180.255H58.54C57.159 180.255 56.04 179.136 56.04 177.755C56.04 176.375 57.159 175.255 58.54 175.255H64.79C66.171 175.255 67.29 176.375 67.29 177.755C67.29 179.136 66.171 180.255 64.79 180.255Z" fill="#0099FF"/>
<path d="M196.954 109.566L191.253 115.266C190.53 115.99 189.357 115.99 188.634 115.266L185.284 111.916V134.692C185.284 135.715 184.455 136.544 183.432 136.544H158.86C158.005 136.544 157.312 135.851 157.312 134.996V111.916L153.747 115.481C153.142 116.086 152.162 116.086 151.557 115.481L145.427 109.351C144.823 108.746 144.823 107.766 145.427 107.161L156.859 95.73C157.149 95.4395 157.543 95.2765 157.953 95.2765H163.152C163.753 95.2765 164.3 95.6255 164.553 96.1715C165.731 98.716 168.309 100.481 171.298 100.481C174.288 100.481 176.865 98.716 178.043 96.1715C178.296 95.6255 178.842 95.2765 179.444 95.2765H184.517C185.008 95.2765 185.479 95.4715 185.827 95.819L196.954 106.946C197.677 107.67 197.677 108.843 196.954 109.566Z" fill="#8080FF"/>
<path d="M111.484 109.566L105.784 115.266C105.06 115.99 103.887 115.99 103.164 115.266L99.8145 111.916V134.692C99.8145 135.715 98.985 136.544 97.962 136.544H73.3905C72.5355 136.544 71.8425 135.851 71.8425 134.996V111.916L68.2775 115.481C67.673 116.086 66.6925 116.086 66.088 115.481L59.9575 109.351C59.353 108.746 59.353 107.766 59.9575 107.161L71.389 95.73C71.6795 95.4395 72.073 95.2765 72.4835 95.2765H77.6825C78.284 95.2765 78.8305 95.6255 79.0835 96.1715C80.262 98.716 82.839 100.481 85.8285 100.481C88.818 100.481 91.395 98.716 92.5735 96.1715C92.8265 95.6255 93.3725 95.2765 93.9745 95.2765H99.0475C99.539 95.2765 100.01 95.4715 100.357 95.819L111.485 106.946C112.207 107.67 112.207 108.843 111.484 109.566Z" fill="#8080FF"/>
<path d="M170.277 97.7204L160.377 107.62C159.401 108.596 157.818 108.596 156.842 107.62L151.085 101.862V139.132C151.085 140.513 149.965 141.632 148.585 141.632H108.415C107.034 141.632 105.915 140.513 105.915 139.132V101.862L100.158 107.62C99.1815 108.596 97.599 108.596 96.6225 107.62L86.723 97.7204C85.7465 96.7439 85.7465 95.1614 86.723 94.1849L105.183 75.7249C105.652 75.2559 106.287 74.9929 106.951 74.9929H115.346C116.318 74.9929 117.2 75.5564 117.608 76.4379C119.511 80.5469 123.673 83.3979 128.5 83.3979C133.327 83.3979 137.489 80.5469 139.392 76.4379C139.8 75.5564 140.683 74.9929 141.654 74.9929H150.05C150.713 74.9929 151.349 75.2564 151.818 75.7249L170.278 94.1849C171.253 95.1614 171.253 96.7444 170.277 97.7204Z" fill="#000099"/>
<path d="M151.958 119.08C157.853 119.08 162.633 114.301 162.633 108.405C162.633 102.51 157.853 97.7305 151.958 97.7305C146.062 97.7305 141.283 102.51 141.283 108.405C141.283 114.301 146.062 119.08 151.958 119.08Z" fill="#0099FF"/>
<path d="M149.609 113.254C148.969 113.254 148.329 113.01 147.84 112.522C146.864 111.546 146.864 109.963 147.84 108.987L152.841 103.987C153.817 103.011 155.4 103.011 156.376 103.987C157.353 104.963 157.353 106.546 156.376 107.522L151.376 112.522C150.888 113.01 150.249 113.254 149.609 113.254Z" fill="white"/>
<path d="M108.75 161.446C108.75 165.266 111.846 168.362 115.666 168.362H140.5C144.32 168.362 147.417 165.266 147.417 161.446C147.417 157.626 144.32 154.529 140.5 154.529H115.666C111.847 154.529 108.75 157.626 108.75 161.446Z" fill="#4747F5"/>
<defs>
<linearGradient id="paint0_linear" x1="59" y1="205.5" x2="278" y2="-65.5" gradientUnits="userSpaceOnUse">
<stop offset="0.007" stop-color="#00CCFF"/>
<stop offset="0.9999" stop-color="#FFDFFF" stop-opacity="0.0500423"/>
<stop offset="1" stop-color="#84E6FE" stop-opacity="0.32"/>
</linearGradient>
</defs>
</svg>
