<svg width="739" height="685" viewBox="0 0 739 685" fill="none" xmlns="http://www.w3.org/2000/svg">
<mask id="mask0" mask-type="alpha" maskUnits="userSpaceOnUse" x="0" y="0" width="739" height="685">
<rect width="739" height="685" fill="white"/>
</mask>
<g mask="url(#mask0)">
<path fill-rule="evenodd" clip-rule="evenodd" d="M689.965 192.462C689.44 192.079 688.193 191.944 687.613 191.829C685.202 191.354 682.718 191.147 680.261 191.147C672.682 191.158 664.98 191.902 657.527 193.19C652.795 194.008 647.074 196.759 642.367 195.265C634.167 192.662 625.879 192.789 618.098 196.506C610.985 199.905 605.585 206.359 602.434 213.333C601.958 214.386 600.029 218.261 599.483 220.873C599.25 221.407 599.025 221.945 598.823 222.491C598.249 224.04 597.735 225.617 597.257 227.197C597.052 227.871 596.539 229.359 597.149 229.647C596.174 231.446 595.31 233.301 594.59 235.216C592.496 240.784 590.207 246.893 589.472 252.795C589.199 254.98 589.189 257.178 589.442 259.368C589.567 260.45 589.515 262.627 590.249 263.449C591.806 265.196 592.605 262.751 592.43 261.587C591.089 252.713 593.678 244.38 596.745 236.038C598.728 230.644 601.987 225.71 605.638 221.241C608.592 217.623 611.762 214.774 615.812 212.376C620.765 209.443 626.06 207.072 631.306 204.694C634.757 203.129 638.212 201.606 641.758 200.258C642.547 199.958 643.788 199.188 644.663 199.185C646.512 199.179 649.133 200.544 650.919 201.051C656.794 202.722 662.745 204.861 668.817 205.714C672.712 206.262 676.361 205.646 680.004 204.348C680.376 204.216 681 203.875 681.764 203.388C684.468 202.348 687.027 201.038 689.254 199.149C690.538 198.061 691.702 196.654 692.764 195.366C693.082 194.982 693.222 194.54 693.227 194.121C693.468 193.995 693.628 193.848 693.664 193.677C693.929 192.41 691.512 192.386 689.965 192.462Z" fill="#89C5CC"/>
<path fill-rule="evenodd" clip-rule="evenodd" d="M74.3031 298.092C72.8162 299.296 71.3579 300.526 69.9352 301.806C68.8509 302.781 66.932 303.949 66.5428 305.427C66.1381 306.962 67.4156 308.4 68.4247 309.328C73.7612 314.239 79.7703 317.559 87.1649 318.111C98.5509 318.961 108.46 316.053 118.339 310.331C125.278 306.311 129.875 300.366 130.879 292.338C139.143 295.773 147.136 300.508 153.928 306.319C157.279 309.186 160.166 312.363 162.836 315.885C164.546 318.14 166.2 320.433 167.735 322.813C168.402 323.847 169.081 325.681 170.182 326.276C171.475 326.976 173.038 325.879 172.974 324.441C172.921 323.245 171.629 321.856 171.025 320.878C170.021 319.253 169.002 317.639 167.93 316.058C166.194 313.5 164.4 310.978 162.443 308.584C158.047 303.205 152.452 298.762 146.652 294.972C135.526 287.703 123.316 283.123 109.778 282.735C101.453 282.497 94.4505 285.341 87.3319 289.589C82.8999 292.234 78.3248 294.834 74.3031 298.092Z" fill="#DDE3E9"/>
<path fill-rule="evenodd" clip-rule="evenodd" d="M182.544 262.885C173.855 253.957 165.135 245.14 155.428 237.278C149.707 232.645 143.678 228.432 137.773 224.039C138.455 224.634 139.123 225.247 139.775 225.875C137.932 224.626 135.519 223.92 133.565 222.764C131.386 221.475 129.303 220 127.259 218.514C123.27 215.613 119.341 212.658 115.24 209.908C110.672 206.845 105.937 204.015 101.291 201.067C97.3481 198.565 93.3566 195.827 89.1385 193.782C86.8395 192.667 84.535 191.345 82.2266 190.182C81.454 189.793 73.6142 184.853 73.634 184.838C74.0671 184.512 78.012 186.363 78.622 186.612C80.4041 187.339 82.1084 188.208 83.8218 189.074C82.8808 187.223 82.1358 185.279 81.73 183.232C81.6046 182.601 80.6002 178.002 81.1132 177.617C81.3694 177.424 83.8729 185.652 84.0013 186.443C84.1056 187.085 84.0906 188.011 84.3016 188.619C84.6423 189.602 84.625 189.305 85.375 189.859C86.7495 190.874 88.5738 191.508 90.0613 192.357C90.8635 192.804 93.3471 194.576 94.8429 195.082C99.369 197.276 103.957 200.651 108.258 203.454C107.129 201.337 106.269 199.125 105.642 196.806C105.493 196.255 103.884 191.317 104.274 191.024C104.712 190.694 107.777 198.237 107.959 198.951C108.296 200.277 108.367 201.753 108.789 203.044C109.253 204.46 110.698 204.963 112 205.789C116.793 208.828 121.421 212.057 125.972 215.434C130.933 206.627 125.205 195.987 120.378 188.595C116.899 183.267 112.216 178.698 107.272 174.709C100.673 169.386 93.1239 165.132 85.5842 161.241C76.799 156.708 67.3044 153.897 57.4342 152.597C52.2719 151.917 46.9909 151.934 41.7768 152.149C39.2296 152.255 36.7849 152.59 34.3442 153.418C33.2441 153.792 32.1811 154.263 31.1451 154.79C30.358 155.191 28.4536 155.614 28.0012 156.211C24.2768 161.048 22.3723 165.869 22.6655 171.949C22.9428 177.705 24.7669 183.464 27.2413 188.599C29.9969 194.317 33.5404 199.507 38.1737 203.863C41.7087 207.187 45.6606 210.08 49.5864 212.935C63.5492 223.09 81.2503 231.924 99.3292 229.662C105.181 228.93 110.747 226.89 115.948 224.117C117.173 223.464 118.391 222.803 119.548 222.031C120.328 221.511 122.413 219.167 123.197 219.082C124.273 218.966 126.591 221.149 127.6 221.814C135.27 226.867 142.739 232.193 150.052 237.735C157.832 243.632 165.232 249.929 172.413 256.521C175.467 259.326 178.502 262.136 181.468 265.035C182.158 265.709 183.847 268.192 185.099 268.305C185.89 268.376 186.424 267.702 186.31 266.971C186.114 265.701 183.434 263.799 182.544 262.885Z" fill="#C1DEE2"/>
<path fill-rule="evenodd" clip-rule="evenodd" d="M680.858 228.253C677.498 227.519 673.787 227.575 670.365 227.636C652.008 227.885 633.982 236.577 622.251 250.466C612.263 262.29 609.517 276.991 607.544 291.851C607.348 293.326 607.264 294.792 607.154 296.271C607.13 296.588 607.095 296.871 607.057 297.138C606.281 297.832 605.874 298.64 606.334 299.529C604.624 303.27 603.178 307.107 601.937 311.063C598.286 322.709 594.571 334.577 596.859 346.824C597.394 340.084 598.518 333.193 599.863 326.564C599.941 326.184 600.024 325.806 600.111 325.43C600.12 325.39 600.128 325.351 600.137 325.311C600.613 323.281 601.232 321.312 601.985 319.374C601.993 319.353 602 319.332 602.009 319.311C602.108 319.056 602.213 318.802 602.318 318.549C602.533 318.023 602.755 317.499 602.989 316.978C603.069 316.8 603.145 316.621 603.218 316.44C604.314 313.754 604.777 310.728 605.758 307.949C605.993 307.317 606.239 306.687 606.496 306.061C606.511 306.024 606.526 305.988 606.542 305.951C607.237 304.266 608.005 302.601 608.817 300.954C609.259 300.623 609.494 299.8 609.875 299.052C609.954 298.904 610.569 297.921 610.752 297.355C611.231 296.43 611.707 295.504 612.189 294.58C612.174 294.586 612.16 294.591 612.145 294.597C612.627 293.71 613.111 292.826 613.59 291.947C613.696 291.754 613.802 291.56 613.909 291.366C614.081 291.058 614.253 290.75 614.425 290.442C616.033 287.564 617.738 284.744 619.508 281.958C620.14 280.965 621.65 279.539 621.939 278.423C621.95 278.381 621.952 278.343 621.959 278.303C625.801 272.906 630.224 267.928 635.528 263.984C634.887 264.677 633.524 267.03 633.164 267.495C632.061 268.921 630.864 270.249 629.662 271.592C627.511 273.999 625.41 276.482 623.543 279.108C620.129 283.91 617.184 288.964 614.4 294.12C614.373 294.15 614.344 294.179 614.319 294.21C612.92 295.935 612.039 298.542 611.032 300.516C615.018 298.669 619.426 297.466 623.517 295.826C627.597 294.192 631.566 292.371 635.397 290.234C640.49 287.393 645.773 284.185 650.584 280.555C656.098 277.134 660.732 272.426 664.822 267.484C669.661 261.638 674.096 255.741 676.839 248.642C678.187 245.154 679.246 241.516 679.875 237.837C679.902 237.676 679.938 237.502 679.976 237.321C680.619 236.051 681.193 234.751 681.676 233.422C682.442 231.313 684.251 228.994 680.858 228.253Z" fill="#69A1AC"/>
<path fill-rule="evenodd" clip-rule="evenodd" d="M111.477 252.953C110.425 251.813 109.242 250.785 107.854 250.051C107.503 249.866 104.889 248.624 104.719 248.896C104.322 249.531 111.161 252.59 111.477 252.953ZM123.872 245.338C123.863 245.386 124.769 246.925 125.016 247.398C125.541 248.403 126.026 249.429 126.483 250.456C125.807 248.641 125.113 246.959 123.872 245.338ZM60.4833 257.86C59.6104 258.142 58.5607 257.033 59.6931 256.76C60.6093 256.541 60.5644 256.489 60.9758 255.751C61.3099 255.152 61.5157 254.421 61.8089 253.792C62.4307 252.458 63.136 251.185 64.0019 249.993C65.8574 247.437 68.1183 245.235 70.654 243.379C75.0793 240.14 80.0411 237.181 85.3045 235.693C93.6734 233.329 103.198 233.183 111.58 234.822C116.772 235.837 121.516 237.602 124.963 241.783C126.686 243.872 128.038 246.32 128.629 249.015C128.783 249.719 128.755 250.503 128.948 251.192C129.245 252.253 129.114 251.97 130.354 252.177C131.708 252.402 133.061 252.632 134.413 252.866C137.955 253.478 141.517 254.129 144.967 255.123C146.103 255.45 147.214 255.85 148.299 256.315C149.119 256.665 152.387 257.768 152.784 258.834C153.445 260.608 151.231 259.804 150.543 259.418C149.94 259.079 149.321 258.763 148.693 258.473C147.112 257.741 145.465 257.175 143.78 256.724C141.96 256.237 140.103 255.874 138.252 255.51C136.527 255.171 134.795 254.862 133.06 254.567C132.097 254.403 131.133 254.244 130.169 254.084C129.839 254.03 129.258 253.745 129.302 254.173C127.275 253.782 125.083 253.839 123.018 253.731C120.488 253.599 117.95 253.491 115.412 253.57C113.582 253.627 111.75 253.747 109.929 253.993C108.865 254.137 107.818 254.347 106.774 254.613C106.201 254.76 103.94 255.07 103.627 255.57C103.761 255.355 106.257 255.563 106.575 255.551C107.845 255.503 109.106 255.378 110.372 255.236C112.721 254.974 115.071 254.837 117.427 254.857C117.418 255.27 115.809 256.007 115.416 256.281C114.535 256.896 113.691 257.567 112.904 258.303C111.517 259.599 109.857 261.204 108.897 262.739C109.18 262.287 110.575 261.698 111.069 261.352C111.862 260.798 112.639 260.207 113.374 259.575C114.052 258.992 114.685 258.362 115.308 257.719C115.93 257.075 116.775 255.736 117.593 255.307C117.643 255.281 117.999 255.563 118.202 255.467C118.406 255.371 118.66 254.888 118.712 254.868C119.474 254.575 120.92 254.94 121.72 254.977C123.796 255.073 125.87 255.198 127.945 255.312C128.587 255.347 129.134 255.201 129.376 255.675C129.635 256.181 129.161 257.51 129.026 258.061C128.526 260.107 127.638 261.941 126.239 263.526C123.62 266.494 120.391 268.473 116.743 269.797C102.769 274.867 87.9029 276.898 73.9335 271.624C68.1502 269.44 59.4405 265.538 60.4833 257.86Z" fill="#89C5CC"/>
<g opacity="0.6">
<path opacity="0.6" fill-rule="evenodd" clip-rule="evenodd" d="M700.295 496.738C709.802 561.101 479.257 603.083 280.821 573.785C82.386 544.487 -8.64678 430.074 86.0433 369.111C180.733 308.147 690.789 432.375 700.295 496.738Z" fill="#DDE3E9"/>
</g>
<path d="M294.704 74.8824H153.83C149.477 74.8824 145.949 78.4114 145.949 82.7647V364.559C145.949 368.912 149.477 372.441 153.83 372.441H294.704C299.057 372.441 302.585 368.912 302.585 364.559V82.7647C302.585 78.4114 299.057 74.8824 294.704 74.8824Z" fill="#F2F2F2"/>
<path d="M223.774 353.721C231.935 353.721 238.551 347.104 238.551 338.941C238.551 330.779 231.935 324.162 223.774 324.162C215.613 324.162 208.997 330.779 208.997 338.941C208.997 347.104 215.613 353.721 223.774 353.721Z" fill="white"/>
<path d="M210.968 94.5882C212.056 94.5882 212.938 93.706 212.938 92.6176C212.938 91.5293 212.056 90.6471 210.968 90.6471C209.879 90.6471 208.997 91.5293 208.997 92.6176C208.997 93.706 209.879 94.5882 210.968 94.5882Z" fill="white"/>
<path d="M236.581 90.6471H219.834C218.746 90.6471 217.864 91.5293 217.864 92.6176C217.864 93.706 218.746 94.5882 219.834 94.5882H236.581C237.669 94.5882 238.551 93.706 238.551 92.6176C238.551 91.5293 237.669 90.6471 236.581 90.6471Z" fill="white"/>
<path d="M284.853 102.471H163.681C161.505 102.471 159.741 104.235 159.741 106.412V151.735C159.741 153.912 161.505 155.676 163.681 155.676H284.853C287.029 155.676 288.793 153.912 288.793 151.735V106.412C288.793 104.235 287.029 102.471 284.853 102.471Z" fill="white"/>
<path d="M267.12 118.432H201.116C199.484 118.432 198.161 119.756 198.161 121.388V123.457C198.161 125.09 199.484 126.413 201.116 126.413H267.12C268.753 126.413 270.076 125.09 270.076 123.457V121.388C270.076 119.756 268.753 118.432 267.12 118.432Z" fill="#DDE3E9"/>
<path d="M243.477 131.734H201.116C199.484 131.734 198.161 133.057 198.161 134.69V136.759C198.161 138.391 199.484 139.715 201.116 139.715H243.477C245.109 139.715 246.432 138.391 246.432 136.759V134.69C246.432 133.057 245.109 131.734 243.477 131.734Z" fill="#DDE3E9"/>
<path d="M180.428 140.897C186.957 140.897 192.25 135.603 192.25 129.074C192.25 122.544 186.957 117.25 180.428 117.25C173.899 117.25 168.607 122.544 168.607 129.074C168.607 135.603 173.899 140.897 180.428 140.897Z" fill="#C5CFD6"/>
<path d="M284.853 163.559H163.681C161.505 163.559 159.741 165.323 159.741 167.5V201C159.741 203.177 161.505 204.941 163.681 204.941H284.853C287.029 204.941 288.793 203.177 288.793 201V167.5C288.793 165.323 287.029 163.559 284.853 163.559Z" fill="white"/>
<path d="M267.12 175.974H201.116C199.484 175.974 198.161 177.297 198.161 178.929V179.225C198.161 180.858 199.484 182.181 201.116 182.181H267.12C268.753 182.181 270.076 180.858 270.076 179.225V178.929C270.076 177.297 268.753 175.974 267.12 175.974Z" fill="#DDE3E9"/>
<path d="M243.477 186.319H201.116C199.484 186.319 198.161 187.642 198.161 189.275V189.571C198.161 191.203 199.484 192.526 201.116 192.526H243.477C245.109 192.526 246.432 191.203 246.432 189.571V189.275C246.432 187.642 245.109 186.319 243.477 186.319Z" fill="#DDE3E9"/>
<path d="M180.428 196.074C186.957 196.074 192.25 190.78 192.25 184.25C192.25 177.72 186.957 172.427 180.428 172.427C173.899 172.427 168.607 177.72 168.607 184.25C168.607 190.78 173.899 196.074 180.428 196.074Z" fill="#C5CFD6"/>
<path d="M284.853 212.824H163.681C161.505 212.824 159.741 214.588 159.741 216.765V250.265C159.741 252.441 161.505 254.206 163.681 254.206H284.853C287.029 254.206 288.793 252.441 288.793 250.265V216.765C288.793 214.588 287.029 212.824 284.853 212.824Z" fill="white"/>
<path d="M267.12 225.238H201.116C199.484 225.238 198.161 226.562 198.161 228.194V228.49C198.161 230.122 199.484 231.446 201.116 231.446H267.12C268.753 231.446 270.076 230.122 270.076 228.49V228.194C270.076 226.562 268.753 225.238 267.12 225.238Z" fill="#DDE3E9"/>
<path d="M243.477 235.584H201.116C199.484 235.584 198.161 236.907 198.161 238.54V238.835C198.161 240.468 199.484 241.791 201.116 241.791H243.477C245.109 241.791 246.432 240.468 246.432 238.835V238.54C246.432 236.907 245.109 235.584 243.477 235.584Z" fill="#DDE3E9"/>
<path d="M180.428 245.338C186.957 245.338 192.25 240.045 192.25 233.515C192.25 226.985 186.957 221.691 180.428 221.691C173.899 221.691 168.607 226.985 168.607 233.515C168.607 240.045 173.899 245.338 180.428 245.338Z" fill="#AFB9C5"/>
<path d="M284.853 262.088H163.681C161.505 262.088 159.741 263.853 159.741 266.029V299.529C159.741 301.706 161.505 303.471 163.681 303.471H284.853C287.029 303.471 288.793 301.706 288.793 299.529V266.029C288.793 263.853 287.029 262.088 284.853 262.088Z" fill="white"/>
<path d="M267.12 274.503H201.116C199.484 274.503 198.161 275.826 198.161 277.459V277.754C198.161 279.387 199.484 280.71 201.116 280.71H267.12C268.753 280.71 270.076 279.387 270.076 277.754V277.459C270.076 275.826 268.753 274.503 267.12 274.503Z" fill="#DDE3E9"/>
<path d="M243.477 284.849H201.116C199.484 284.849 198.161 286.172 198.161 287.804V288.1C198.161 289.732 199.484 291.056 201.116 291.056H243.477C245.109 291.056 246.432 289.732 246.432 288.1V287.804C246.432 286.172 245.109 284.849 243.477 284.849Z" fill="#DDE3E9"/>
<path d="M180.428 294.603C186.957 294.603 192.25 289.309 192.25 282.779C192.25 276.249 186.957 270.956 180.428 270.956C173.899 270.956 168.607 276.249 168.607 282.779C168.607 289.309 173.899 294.603 180.428 294.603Z" fill="#C5CFD6"/>
<path fill-rule="evenodd" clip-rule="evenodd" d="M175.64 315.294C174.335 315.294 173.034 315.32 171.731 315.388C170.737 315.44 169.219 315.234 168.378 315.853C167.504 316.497 167.565 317.814 167.701 318.744C168.422 323.662 170.183 328.023 173.866 331.508C179.537 336.873 186.039 339.599 193.732 340.813C199.136 341.666 204.125 340.482 208.103 336.638C211.009 342.034 213.214 348.005 214.321 354.031C214.867 357.005 215.033 359.942 214.937 362.97C214.876 364.91 214.769 366.844 214.561 368.775C214.471 369.613 214.043 370.883 214.371 371.675C214.757 372.606 216.056 372.696 216.639 371.903C217.125 371.242 217.036 369.945 217.135 369.163C217.301 367.865 217.454 366.565 217.563 365.26C217.741 363.149 217.873 361.031 217.863 358.912C217.841 354.149 216.782 349.368 215.334 344.848C212.556 336.175 208.048 328.467 201.038 322.419C196.727 318.7 191.794 317.194 186.197 316.386C182.712 315.883 179.171 315.294 175.64 315.294Z" fill="#89C5CC"/>
<path fill-rule="evenodd" clip-rule="evenodd" d="M195.768 349.78C181.682 349.78 172.195 361.134 167.709 372.935C166.018 377.384 165.622 382.268 164.97 386.939C164.761 388.438 164.838 390.722 164.23 392.058C164.009 392.542 163.503 392.716 163.745 393.376C163.892 393.775 164.179 394.02 164.611 394.099C165.497 394.262 166.75 393.297 167.509 392.916C173.81 389.756 177.95 384.869 181.327 378.89C183.421 375.184 185.545 371.337 186.788 367.268C187.548 364.783 187.99 362.165 188.25 359.587C188.352 358.572 188.451 357.532 188.445 356.511C188.439 355.497 187.968 354.961 187.629 354.079C192.329 352.3 197.634 351.815 202.395 353.659C206.799 355.364 210.457 358.66 212.505 362.801C213.037 363.877 213.448 365.012 213.747 366.171C213.942 366.929 213.952 367.913 214.314 368.599C215.194 370.261 217.044 369.15 216.866 367.602C216.371 363.285 213.902 358.951 210.746 355.95C206.765 352.165 201.37 349.78 195.768 349.78Z" fill="#89C5CC"/>
<path d="M359.723 100.5H218.849C214.496 100.5 210.968 104.029 210.968 108.382V390.176C210.968 394.53 214.496 398.059 218.849 398.059H359.723C364.076 398.059 367.604 394.53 367.604 390.176V108.382C367.604 104.029 364.076 100.5 359.723 100.5Z" fill="#DDE3E9"/>
<path d="M288.793 379.338C296.954 379.338 303.57 372.721 303.57 364.559C303.57 356.397 296.954 349.78 288.793 349.78C280.632 349.78 274.016 356.397 274.016 364.559C274.016 372.721 280.632 379.338 288.793 379.338Z" fill="white"/>
<path d="M275.986 120.206C277.075 120.206 277.957 119.324 277.957 118.235C277.957 117.147 277.075 116.265 275.986 116.265C274.898 116.265 274.016 117.147 274.016 118.235C274.016 119.324 274.898 120.206 275.986 120.206Z" fill="white"/>
<path d="M301.6 116.265H284.853C283.765 116.265 282.882 117.147 282.882 118.235C282.882 119.324 283.765 120.206 284.853 120.206H301.6C302.688 120.206 303.57 119.324 303.57 118.235C303.57 117.147 302.688 116.265 301.6 116.265Z" fill="white"/>
<path d="M349.872 128.088H228.7C226.524 128.088 224.759 129.853 224.759 132.029V177.353C224.759 179.53 226.524 181.294 228.7 181.294H349.872C352.048 181.294 353.812 179.53 353.812 177.353V132.029C353.812 129.853 352.048 128.088 349.872 128.088Z" fill="white"/>
<path d="M302.585 144.05H236.581C234.949 144.05 233.626 145.373 233.626 147.006V149.075C233.626 150.707 234.949 152.031 236.581 152.031H302.585C304.217 152.031 305.541 150.707 305.541 149.075V147.006C305.541 145.373 304.217 144.05 302.585 144.05Z" fill="#DDE3E9"/>
<path d="M278.942 157.351H236.581C234.949 157.351 233.626 158.675 233.626 160.307V162.376C233.626 164.009 234.949 165.332 236.581 165.332H278.942C280.574 165.332 281.897 164.009 281.897 162.376V160.307C281.897 158.675 280.574 157.351 278.942 157.351Z" fill="#DDE3E9"/>
<path d="M340.02 161.588C343.829 161.588 346.916 158.5 346.916 154.691C346.916 150.882 343.829 147.794 340.02 147.794C336.212 147.794 333.124 150.882 333.124 154.691C333.124 158.5 336.212 161.588 340.02 161.588Z" fill="#DDE3E9"/>
<path d="M340.02 157.647C341.652 157.647 342.976 156.324 342.976 154.691C342.976 153.059 341.652 151.735 340.02 151.735C338.388 151.735 337.065 153.059 337.065 154.691C337.065 156.324 338.388 157.647 340.02 157.647Z" fill="#F2F2F2"/>
<path d="M349.872 189.176H228.7C226.524 189.176 224.759 190.941 224.759 193.118V226.618C224.759 228.794 226.524 230.559 228.7 230.559H349.872C352.048 230.559 353.812 228.794 353.812 226.618V193.118C353.812 190.941 352.048 189.176 349.872 189.176Z" fill="white"/>
<path d="M332.139 201.591H266.135C264.503 201.591 263.18 202.915 263.18 204.547V204.843C263.18 206.475 264.503 207.799 266.135 207.799H332.139C333.771 207.799 335.095 206.475 335.095 204.843V204.547C335.095 202.915 333.771 201.591 332.139 201.591Z" fill="#DDE3E9"/>
<path d="M308.496 211.937H266.135C264.503 211.937 263.18 213.26 263.18 214.893V215.188C263.18 216.821 264.503 218.144 266.135 218.144H308.496C310.128 218.144 311.451 216.821 311.451 215.188V214.893C311.451 213.26 310.128 211.937 308.496 211.937Z" fill="#DDE3E9"/>
<path d="M245.447 221.691C251.976 221.691 257.269 216.398 257.269 209.868C257.269 203.338 251.976 198.044 245.447 198.044C238.918 198.044 233.626 203.338 233.626 209.868C233.626 216.398 238.918 221.691 245.447 221.691Z" fill="#C5CFD6"/>
<path d="M349.872 238.441H228.7C226.524 238.441 224.759 240.206 224.759 242.382V275.882C224.759 278.059 226.524 279.823 228.7 279.823H349.872C352.048 279.823 353.812 278.059 353.812 275.882V242.382C353.812 240.206 352.048 238.441 349.872 238.441Z" fill="white"/>
<path d="M302.585 250.856H236.581C234.949 250.856 233.626 252.179 233.626 253.812V254.107C233.626 255.74 234.949 257.063 236.581 257.063H302.585C304.217 257.063 305.541 255.74 305.541 254.107V253.812C305.541 252.179 304.217 250.856 302.585 250.856Z" fill="#DDE3E9"/>
<path d="M278.942 261.201H236.581C234.949 261.201 233.626 262.525 233.626 264.157V264.453C233.626 266.085 234.949 267.409 236.581 267.409H278.942C280.574 267.409 281.897 266.085 281.897 264.453V264.157C281.897 262.525 280.574 261.201 278.942 261.201Z" fill="#AFB9C5"/>
<path d="M340.02 266.029C343.829 266.029 346.916 262.941 346.916 259.132C346.916 255.323 343.829 252.235 340.02 252.235C336.212 252.235 333.124 255.323 333.124 259.132C333.124 262.941 336.212 266.029 340.02 266.029Z" fill="#DDE3E9"/>
<path d="M340.02 262.088C341.652 262.088 342.976 260.765 342.976 259.132C342.976 257.5 341.652 256.176 340.02 256.176C338.388 256.176 337.065 257.5 337.065 259.132C337.065 260.765 338.388 262.088 340.02 262.088Z" fill="#F2F2F2"/>
<path d="M349.872 287.706H228.7C226.524 287.706 224.759 289.47 224.759 291.647V325.147C224.759 327.324 226.524 329.088 228.7 329.088H349.872C352.048 329.088 353.812 327.324 353.812 325.147V291.647C353.812 289.47 352.048 287.706 349.872 287.706Z" fill="white"/>
<path d="M332.139 300.121H266.135C264.503 300.121 263.18 301.444 263.18 303.077V303.372C263.18 305.005 264.503 306.328 266.135 306.328H332.139C333.771 306.328 335.095 305.005 335.095 303.372V303.077C335.095 301.444 333.771 300.121 332.139 300.121Z" fill="#DDE3E9"/>
<path d="M308.496 310.466H266.135C264.503 310.466 263.18 311.79 263.18 313.422V313.718C263.18 315.35 264.503 316.674 266.135 316.674H308.496C310.128 316.674 311.451 315.35 311.451 313.718V313.422C311.451 311.79 310.128 310.466 308.496 310.466Z" fill="#DDE3E9"/>
<path d="M245.447 320.221C251.976 320.221 257.269 314.927 257.269 308.397C257.269 301.867 251.976 296.574 245.447 296.574C238.918 296.574 233.626 301.867 233.626 308.397C233.626 314.927 238.918 320.221 245.447 320.221Z" fill="#C5CFD6"/>
<path d="M598.126 125.132H283.868C279.515 125.132 275.987 128.661 275.987 133.015V458.162C275.987 462.515 279.515 466.044 283.868 466.044H598.126C602.478 466.044 606.007 462.515 606.007 458.162V133.015C606.007 128.661 602.478 125.132 598.126 125.132Z" fill="#F2F2F2"/>
<path d="M582.363 167.5H529.166C524.814 167.5 521.285 171.029 521.285 175.382V239.426C521.285 243.78 524.814 247.309 529.166 247.309H582.363C586.716 247.309 590.245 243.78 590.245 239.426V175.382C590.245 171.029 586.716 167.5 582.363 167.5Z" fill="white"/>
<path d="M555.765 213.809C564.47 213.809 571.527 206.751 571.527 198.044C571.527 189.338 564.47 182.279 555.765 182.279C547.06 182.279 540.003 189.338 540.003 198.044C540.003 206.751 547.06 213.809 555.765 213.809Z" fill="#DDE3E9"/>
<path d="M577.438 217.75H534.092C532.46 217.75 531.137 219.073 531.137 220.706C531.137 222.338 532.46 223.662 534.092 223.662H577.438C579.07 223.662 580.393 222.338 580.393 220.706C580.393 219.073 579.07 217.75 577.438 217.75Z" fill="#DDE3E9"/>
<path d="M569.557 227.603H541.973C540.341 227.603 539.018 228.926 539.018 230.559C539.018 232.191 540.341 233.515 541.973 233.515H569.557C571.189 233.515 572.512 232.191 572.512 230.559C572.512 228.926 571.189 227.603 569.557 227.603Z" fill="#DDE3E9"/>
<path fill-rule="evenodd" clip-rule="evenodd" d="M283.868 125.132H598.126C602.478 125.132 606.007 128.661 606.007 133.015V151.735H275.987V133.015C275.987 128.661 279.515 125.132 283.868 125.132Z" fill="#C5CFD6"/>
<path d="M288.793 142.868C290.969 142.868 292.734 141.103 292.734 138.927C292.734 136.75 290.969 134.985 288.793 134.985C286.617 134.985 284.853 136.75 284.853 138.927C284.853 141.103 286.617 142.868 288.793 142.868Z" fill="#F2F2F2"/>
<path d="M300.615 142.868C302.791 142.868 304.555 141.103 304.555 138.927C304.555 136.75 302.791 134.985 300.615 134.985C298.439 134.985 296.674 136.75 296.674 138.927C296.674 141.103 298.439 142.868 300.615 142.868Z" fill="#F2F2F2"/>
<path d="M312.436 142.868C314.613 142.868 316.377 141.103 316.377 138.927C316.377 136.75 314.613 134.985 312.436 134.985C310.26 134.985 308.496 136.75 308.496 138.927C308.496 141.103 310.26 142.868 312.436 142.868Z" fill="#F2F2F2"/>
<path d="M582.363 255.191H529.166C524.814 255.191 521.285 258.72 521.285 263.073V438.456C521.285 442.809 524.814 446.338 529.166 446.338H582.363C586.716 446.338 590.245 442.809 590.245 438.456V263.073C590.245 258.72 586.716 255.191 582.363 255.191Z" fill="white"/>
<path d="M568.572 272.926H542.958C540.782 272.926 539.018 274.691 539.018 276.868V294.603C539.018 296.78 540.782 298.544 542.958 298.544H568.572C570.748 298.544 572.512 296.78 572.512 294.603V276.868C572.512 274.691 570.748 272.926 568.572 272.926Z" fill="#DDE3E9"/>
<path d="M568.572 306.427H542.958C540.782 306.427 539.018 308.191 539.018 310.368V327.118C539.018 329.294 540.782 331.059 542.958 331.059H568.572C570.748 331.059 572.512 329.294 572.512 327.118V310.368C572.512 308.191 570.748 306.427 568.572 306.427Z" fill="#AFB9C5"/>
<path d="M568.572 338.941H542.958C540.782 338.941 539.018 340.706 539.018 342.882V359.632C539.018 361.809 540.782 363.574 542.958 363.574H568.572C570.748 363.574 572.512 361.809 572.512 359.632V342.882C572.512 340.706 570.748 338.941 568.572 338.941Z" fill="#DDE3E9"/>
<path d="M568.572 403.971H542.958C540.782 403.971 539.018 405.735 539.018 407.912V424.662C539.018 426.838 540.782 428.603 542.958 428.603H568.572C570.748 428.603 572.512 426.838 572.512 424.662V407.912C572.512 405.735 570.748 403.971 568.572 403.971Z" fill="#DDE3E9"/>
<path d="M568.572 371.456H542.958C540.782 371.456 539.018 373.22 539.018 375.397V392.147C539.018 394.324 540.782 396.088 542.958 396.088H568.572C570.748 396.088 572.512 394.324 572.512 392.147V375.397C572.512 373.22 570.748 371.456 568.572 371.456Z" fill="#C5CFD6"/>
<path d="M509.463 168.485H295.689C293.513 168.485 291.749 170.25 291.749 172.427V210.853C291.749 213.03 293.513 214.794 295.689 214.794H509.463C511.64 214.794 513.404 213.03 513.404 210.853V172.427C513.404 170.25 511.64 168.485 509.463 168.485Z" fill="white"/>
<path d="M462.177 182.378H303.57C301.938 182.378 300.615 183.701 300.615 185.334V186.368C300.615 188.001 301.938 189.324 303.57 189.324H462.177C463.809 189.324 465.132 188.001 465.132 186.368V185.334C465.132 183.701 463.809 182.378 462.177 182.378Z" fill="#DDE3E9"/>
<path d="M408.089 193.955H303.57C301.938 193.955 300.615 195.279 300.615 196.911V197.946C300.615 199.578 301.938 200.901 303.57 200.901H408.089C409.721 200.901 411.044 199.578 411.044 197.946V196.911C411.044 195.279 409.721 193.955 408.089 193.955Z" fill="#DDE3E9"/>
<path d="M489.716 198.537C493.524 198.537 496.612 195.449 496.612 191.64C496.612 187.83 493.524 184.743 489.716 184.743C485.907 184.743 482.82 187.83 482.82 191.64C482.82 195.449 485.907 198.537 489.716 198.537Z" fill="#DDE3E9"/>
<path d="M489.716 194.596C491.348 194.596 492.671 193.272 492.671 191.64C492.671 190.007 491.348 188.684 489.716 188.684C488.083 188.684 486.76 190.007 486.76 191.64C486.76 193.272 488.083 194.596 489.716 194.596Z" fill="#F2F2F2"/>
<path d="M509.463 222.676H295.689C293.513 222.676 291.749 224.441 291.749 226.618V257.162C291.749 259.338 293.513 261.103 295.689 261.103H509.463C511.64 261.103 513.404 259.338 513.404 257.162V226.618C513.404 224.441 511.64 222.676 509.463 222.676Z" fill="white"/>
<path d="M462.251 234.204H303.496C301.905 234.204 300.615 235.495 300.615 237.086C300.615 238.678 301.905 239.968 303.496 239.968H462.251C463.842 239.968 465.132 238.678 465.132 237.086C465.132 235.495 463.842 234.204 462.251 234.204Z" fill="#DDE3E9"/>
<path d="M408.163 243.811H303.496C301.905 243.811 300.615 245.101 300.615 246.693C300.615 248.285 301.905 249.575 303.496 249.575H408.163C409.754 249.575 411.044 248.285 411.044 246.693C411.044 245.101 409.754 243.811 408.163 243.811Z" fill="#DDE3E9"/>
<path d="M489.716 248.787C493.524 248.787 496.612 245.699 496.612 241.89C496.612 238.081 493.524 234.993 489.716 234.993C485.907 234.993 482.82 238.081 482.82 241.89C482.82 245.699 485.907 248.787 489.716 248.787Z" fill="#DDE3E9"/>
<path d="M489.716 244.846C491.348 244.846 492.671 243.522 492.671 241.89C492.671 240.257 491.348 238.934 489.716 238.934C488.083 238.934 486.76 240.257 486.76 241.89C486.76 243.522 488.083 244.846 489.716 244.846Z" fill="#F2F2F2"/>
<path d="M509.463 268.985H295.689C293.513 268.985 291.749 270.75 291.749 272.926V303.471C291.749 305.647 293.513 307.412 295.689 307.412H509.463C511.64 307.412 513.404 305.647 513.404 303.471V272.926C513.404 270.75 511.64 268.985 509.463 268.985Z" fill="white"/>
<path d="M462.251 280.513H303.496C301.905 280.513 300.615 281.804 300.615 283.395C300.615 284.987 301.905 286.277 303.496 286.277H462.251C463.842 286.277 465.132 284.987 465.132 283.395C465.132 281.804 463.842 280.513 462.251 280.513Z" fill="#DDE3E9"/>
<path d="M408.163 290.12H303.496C301.905 290.12 300.615 291.41 300.615 293.002C300.615 294.594 301.905 295.884 303.496 295.884H408.163C409.754 295.884 411.044 294.594 411.044 293.002C411.044 291.41 409.754 290.12 408.163 290.12Z" fill="#DDE3E9"/>
<path d="M489.716 295.095C493.524 295.095 496.612 292.008 496.612 288.199C496.612 284.389 493.524 281.302 489.716 281.302C485.907 281.302 482.82 284.389 482.82 288.199C482.82 292.008 485.907 295.095 489.716 295.095Z" fill="#DDE3E9"/>
<path d="M489.716 291.154C491.348 291.154 492.671 289.831 492.671 288.199C492.671 286.566 491.348 285.243 489.716 285.243C488.083 285.243 486.76 286.566 486.76 288.199C486.76 289.831 488.083 291.154 489.716 291.154Z" fill="#AFB9C5"/>
<path d="M509.463 407.912H295.689C293.513 407.912 291.749 409.676 291.749 411.853V442.397C291.749 444.574 293.513 446.338 295.689 446.338H509.463C511.64 446.338 513.404 444.574 513.404 442.397V411.853C513.404 409.676 511.64 407.912 509.463 407.912Z" fill="white"/>
<path d="M462.251 419.44H303.496C301.905 419.44 300.615 420.73 300.615 422.322C300.615 423.914 301.905 425.204 303.496 425.204H462.251C463.842 425.204 465.132 423.914 465.132 422.322C465.132 420.73 463.842 419.44 462.251 419.44Z" fill="#DDE3E9"/>
<path d="M408.163 429.046H303.496C301.905 429.046 300.615 430.337 300.615 431.928C300.615 433.52 301.905 434.81 303.496 434.81H408.163C409.754 434.81 411.044 433.52 411.044 431.928C411.044 430.337 409.754 429.046 408.163 429.046Z" fill="#DDE3E9"/>
<path d="M489.716 434.022C493.524 434.022 496.612 430.934 496.612 427.125C496.612 423.316 493.524 420.228 489.716 420.228C485.907 420.228 482.82 423.316 482.82 427.125C482.82 430.934 485.907 434.022 489.716 434.022Z" fill="#DDE3E9"/>
<path d="M489.716 430.081C491.348 430.081 492.671 428.758 492.671 427.125C492.671 425.493 491.348 424.169 489.716 424.169C488.083 424.169 486.76 425.493 486.76 427.125C486.76 428.758 488.083 430.081 489.716 430.081Z" fill="#F2F2F2"/>
<path d="M509.463 361.603H295.689C293.513 361.603 291.749 363.367 291.749 365.544V396.088C291.749 398.265 293.513 400.03 295.689 400.03H509.463C511.64 400.03 513.404 398.265 513.404 396.088V365.544C513.404 363.367 511.64 361.603 509.463 361.603Z" fill="white"/>
<path d="M462.251 373.131H303.496C301.905 373.131 300.615 374.421 300.615 376.013C300.615 377.605 301.905 378.895 303.496 378.895H462.251C463.842 378.895 465.132 377.605 465.132 376.013C465.132 374.421 463.842 373.131 462.251 373.131Z" fill="#DDE3E9"/>
<path d="M408.163 382.738H303.496C301.905 382.738 300.615 384.028 300.615 385.62C300.615 387.211 301.905 388.502 303.496 388.502H408.163C409.754 388.502 411.044 387.211 411.044 385.62C411.044 384.028 409.754 382.738 408.163 382.738Z" fill="#DDE3E9"/>
<path d="M489.716 387.713C493.524 387.713 496.612 384.625 496.612 380.816C496.612 377.007 493.524 373.919 489.716 373.919C485.907 373.919 482.82 377.007 482.82 380.816C482.82 384.625 485.907 387.713 489.716 387.713Z" fill="#DDE3E9"/>
<path d="M489.716 383.772C491.348 383.772 492.671 382.449 492.671 380.816C492.671 379.184 491.348 377.86 489.716 377.86C488.083 377.86 486.76 379.184 486.76 380.816C486.76 382.449 488.083 383.772 489.716 383.772Z" fill="#F2F2F2"/>
<path d="M509.463 315.294H295.689C293.513 315.294 291.749 317.059 291.749 319.235V349.779C291.749 351.956 293.513 353.721 295.689 353.721H509.463C511.64 353.721 513.404 351.956 513.404 349.779V319.235C513.404 317.059 511.64 315.294 509.463 315.294Z" fill="white"/>
<path d="M462.251 326.822H303.496C301.905 326.822 300.615 328.112 300.615 329.704C300.615 331.296 301.905 332.586 303.496 332.586H462.251C463.842 332.586 465.132 331.296 465.132 329.704C465.132 328.112 463.842 326.822 462.251 326.822Z" fill="#DDE3E9"/>
<path d="M408.163 336.429H303.496C301.905 336.429 300.615 337.719 300.615 339.311C300.615 340.902 301.905 342.193 303.496 342.193H408.163C409.754 342.193 411.044 340.902 411.044 339.311C411.044 337.719 409.754 336.429 408.163 336.429Z" fill="#DDE3E9"/>
<path d="M489.716 341.404C493.524 341.404 496.612 338.316 496.612 334.507C496.612 330.698 493.524 327.61 489.716 327.61C485.907 327.61 482.82 330.698 482.82 334.507C482.82 338.316 485.907 341.404 489.716 341.404Z" fill="#DDE3E9"/>
<path d="M489.716 337.463C491.348 337.463 492.671 336.14 492.671 334.507C492.671 332.875 491.348 331.551 489.716 331.551C488.083 331.551 486.76 332.875 486.76 334.507C486.76 336.14 488.083 337.463 489.716 337.463Z" fill="#F2F2F2"/>
<path fill-rule="evenodd" clip-rule="evenodd" d="M687.759 293.002C683.873 290.367 678.706 289.676 674.056 289.676C655.894 289.676 638.823 296.416 624.075 306.458C615.994 311.96 608.765 318.967 602.383 326.263C598.699 330.474 595.414 335.03 593.089 340.097C591.52 343.517 590.443 347.08 589.713 350.755C588.823 355.235 588.116 359.805 587.796 364.359C587.67 366.152 586.629 375.667 589.61 375.828C589.592 376.063 589.589 376.286 589.607 376.487C583.134 386.609 579.135 398.473 575.426 409.72C572.2 419.508 569.325 429.378 567.458 439.503C565.001 452.834 563.387 466.365 562.619 479.887C562.455 482.793 562.341 485.701 562.244 488.611C562.161 491.093 562.078 493.575 561.996 496.057C561.905 498.838 561.416 502.041 561.858 504.806C562.243 507.214 564.327 506.85 564.419 504.453C564.53 501.559 564.512 498.659 564.639 495.763C564.807 491.919 564.98 488.076 565.169 484.233C566.478 457.54 571.389 431.239 580.453 406.024C584.122 395.82 588.325 386.161 593.727 376.722C598.477 368.423 604.19 360.388 610.03 352.905C615.706 345.634 621.607 338.53 628.562 332.369C634.206 327.369 640.413 323.014 646.795 318.961C654.9 313.814 662.99 308.792 671.77 304.841C676.333 302.787 680.983 300.949 685.583 298.978C686.41 298.623 687.297 298.28 688.093 297.869C690.748 296.499 689.874 294.437 687.759 293.002Z" fill="#C1DEE2"/>
<path fill-rule="evenodd" clip-rule="evenodd" d="M83.8239 363.314C102.213 394.169 123.63 424.045 136.492 457.78C135.974 453.804 135.424 449.831 134.809 445.865C131.546 424.838 127.49 403.964 123.227 383.117C121.057 372.502 118.761 361.926 116.407 351.35C115.14 345.67 113.89 339.987 112.597 334.312C112.284 332.937 112.015 330.536 111.623 328.103C124.123 369.127 136.177 410.183 144.994 452.193C146.151 457.707 147.136 463.21 147.942 468.704C148.218 467.451 148.49 466.197 148.787 464.948C152.355 449.964 157.706 435.099 164.078 421.089C167.124 414.39 170.623 407.836 174.742 401.73C177.311 397.924 183.37 393.399 185.713 389.501C172.897 413.012 168.269 442.428 160.869 467.988C159.062 474.226 157.245 480.453 155.464 486.691C166.624 464.307 183.939 445.916 208.012 437.946C178.872 457.203 161.394 490.927 149.615 525.418C149.577 525.827 149.53 526.236 149.491 526.645C152.956 520.067 157.322 514.116 163.239 509.948C175.903 501.026 189.952 503.626 202.236 511.279C192.595 505.149 175.17 510.731 167.058 516.961C161.251 521.421 156.287 527.404 151.977 533.241C150.945 534.64 149.536 536.272 148.047 538.014C145.96 551.563 142.56 565.019 137.745 578.368C138.539 574.536 137.965 568.408 138.185 565.552C138.209 565.243 138.229 564.934 138.253 564.625C137.521 567.548 136.814 570.437 136.133 573.28C137.486 567.855 138.222 562.192 138.796 556.471C138.944 554.012 139.088 551.553 139.24 549.094C139.192 544.428 139 539.743 138.675 535.05C137.522 530.49 136.232 526.188 135.168 522.611C131.328 509.703 125.698 497.337 118.77 485.8C112.448 475.272 104.881 465.736 96.1449 457.112C91.4356 452.464 86.507 448.037 81.6478 443.549C79.8907 441.927 76.75 437.937 74.0338 435.858C93.8158 446.766 114.177 458.566 128.608 476.141C126.916 469.643 125.078 463.237 123.135 456.959C113.273 425.109 100.821 392.1 83.8239 363.314Z" fill="#DDE3E9"/>
<path fill-rule="evenodd" clip-rule="evenodd" d="M103.588 537.971C103.588 573.341 106.388 602.015 143.978 602.015C181.568 602.015 184.369 573.341 184.369 537.971" fill="#C5CFD6"/>
<path d="M528.181 85.7206C528.181 84.0881 526.858 82.7647 525.226 82.7647C523.594 82.7647 522.27 84.0881 522.27 85.7206V104.441C522.27 106.074 523.594 107.397 525.226 107.397C526.858 107.397 528.181 106.074 528.181 104.441V85.7206Z" fill="#DDE3E9"/>
<path d="M541.973 69.9559C541.973 68.3234 540.65 67 539.018 67C537.385 67 536.062 68.3234 536.062 69.9559V104.441C536.062 106.074 537.385 107.397 539.018 107.397C540.65 107.397 541.973 106.074 541.973 104.441V69.9559Z" fill="#DDE3E9"/>
<path d="M555.765 62.0735C555.765 60.441 554.442 59.1176 552.81 59.1176C551.177 59.1176 549.854 60.441 549.854 62.0735V104.441C549.854 106.074 551.177 107.397 552.81 107.397C554.442 107.397 555.765 106.074 555.765 104.441V62.0735Z" fill="#DDE3E9"/>
<path d="M569.557 69.9559C569.557 68.3234 568.234 67 566.601 67C564.969 67 563.646 68.3234 563.646 69.9559V104.441C563.646 106.074 564.969 107.397 566.601 107.397C568.234 107.397 569.557 106.074 569.557 104.441V69.9559Z" fill="#DDE3E9"/>
<path d="M583.349 54.1912C583.349 52.5587 582.026 51.2353 580.393 51.2353C578.761 51.2353 577.438 52.5587 577.438 54.1912V104.441C577.438 106.074 578.761 107.397 580.393 107.397C582.026 107.397 583.349 106.074 583.349 104.441V54.1912Z" fill="#C5CFD6"/>
<path fill-rule="evenodd" clip-rule="evenodd" d="M37.5838 352.988C37.5838 342.013 46.452 333.03 57.2865 333.03V352.988L43.8216 367.515C39.9914 363.963 37.5838 358.753 37.5838 352.988Z" fill="#F2F2F2"/>
<path fill-rule="evenodd" clip-rule="evenodd" d="M56.7616 352.735H76.6585C76.6585 357.88 74.5604 362.7 71.2436 366.202C67.5955 370.033 62.4004 372.441 56.7616 372.441C51.5674 372.441 46.8131 370.363 43.164 367.078L56.7616 352.735Z" fill="#AFB9C5"/>
<path fill-rule="evenodd" clip-rule="evenodd" d="M76.9892 352.735C76.9892 341.899 68.121 333.03 57.2865 333.03V352.735H76.9892ZM47.4351 333.03L55.3162 350.765L37.5838 342.882C39.3373 338.285 43.2749 334.783 47.4351 333.03Z" fill="#C5CFD6"/>
<path fill-rule="evenodd" clip-rule="evenodd" d="M678.677 361.779C676.784 363.789 674.102 365.051 671.12 365.051C665.389 365.051 660.743 360.42 660.743 354.706C660.743 348.992 665.389 344.36 671.12 344.36V325.147C654.816 325.147 641.472 338.452 641.472 354.706C641.472 370.96 654.816 384.265 671.12 384.265C679.683 384.265 687.423 380.653 692.699 374.906L678.677 361.779Z" fill="#F2F2F2"/>
<path fill-rule="evenodd" clip-rule="evenodd" d="M671.026 325.147V344.36C676.738 344.36 681.37 348.992 681.37 354.706H700.58C700.58 338.452 687.277 325.147 671.026 325.147Z" fill="#AFB9C5"/>
<path fill-rule="evenodd" clip-rule="evenodd" d="M680.973 354.706C680.973 358.063 679.392 361.047 676.936 362.973L689.016 378.353C696.047 372.847 700.58 364.312 700.58 354.706H680.973Z" fill="#C5CFD6"/>
<path fill-rule="evenodd" clip-rule="evenodd" d="M490.796 90.1583C489.34 91.6993 487.277 92.6669 484.983 92.6669C480.575 92.6669 477.001 89.1158 477.001 84.7353C477.001 80.3548 480.575 76.8037 484.983 76.8037V62.0735C472.442 62.0735 462.177 72.2736 462.177 84.7353C462.177 97.197 472.442 107.397 484.983 107.397C491.571 107.397 497.524 104.628 501.582 100.222L490.796 90.1583Z" fill="#F2F2F2"/>
<path fill-rule="evenodd" clip-rule="evenodd" d="M484.835 62.0735V76.8037C489.215 76.8037 492.765 80.3548 492.765 84.7353H507.493C507.493 72.2736 497.295 62.0735 484.835 62.0735Z" fill="#AFB9C5"/>
<path fill-rule="evenodd" clip-rule="evenodd" d="M492.788 84.7353C492.788 87.253 491.602 89.4909 489.761 90.9358L498.82 102.471C504.094 98.3411 507.493 91.9397 507.493 84.7353H492.788Z" fill="#C5CFD6"/>
<path fill-rule="evenodd" clip-rule="evenodd" d="M132.163 107.384C132.159 107.394 132.155 107.404 132.15 107.416C132.155 107.406 132.163 107.366 132.163 107.384Z" fill="#C5CFD6"/>
<path fill-rule="evenodd" clip-rule="evenodd" d="M132.154 107.398C132.154 107.4 132.152 107.403 132.152 107.407C132.152 107.398 132.17 107.37 132.154 107.398Z" fill="#C5CFD6"/>
<path fill-rule="evenodd" clip-rule="evenodd" d="M132.225 107.232C132.211 107.271 132.193 107.308 132.177 107.348C132.185 107.328 132.193 107.312 132.201 107.293C131.993 107.804 132.125 107.472 132.225 107.232Z" fill="#C5CFD6"/>
<path fill-rule="evenodd" clip-rule="evenodd" d="M132.179 107.35C132.171 107.368 132.163 107.388 132.155 107.406C132.097 107.518 132.179 107.35 132.179 107.35Z" fill="#C5CFD6"/>
<path fill-rule="evenodd" clip-rule="evenodd" d="M132.156 107.399C132.156 107.397 132.156 107.397 132.158 107.395C132.156 107.397 132.156 107.397 132.156 107.399Z" fill="#C5CFD6"/>
<path fill-rule="evenodd" clip-rule="evenodd" d="M132.146 107.414C132.135 107.438 132.201 107.322 132.146 107.414V107.414Z" fill="#C5CFD6"/>
<path fill-rule="evenodd" clip-rule="evenodd" d="M132.155 107.399L132.159 107.395C132.157 107.397 132.157 107.399 132.155 107.399Z" fill="#C5CFD6"/>
<path d="M174.518 56.1618H88.8108C86.6345 56.1618 84.8703 57.9263 84.8703 60.1029V114.294C84.8703 116.471 86.6345 118.235 88.8108 118.235H174.518C176.694 118.235 178.458 116.471 178.458 114.294V60.1029C178.458 57.9263 176.694 56.1618 174.518 56.1618Z" fill="#DDE3E9"/>
<path fill-rule="evenodd" clip-rule="evenodd" d="M120.335 73.8971L92.7513 118.235H147.919L120.335 73.8971Z" fill="#AFB9C5"/>
<path fill-rule="evenodd" clip-rule="evenodd" d="M147.426 85.7206L123.291 118.235H171.562L147.426 85.7206Z" fill="#C5CFD6"/>
<path d="M157.77 85.7206C162.667 85.7206 166.637 81.7504 166.637 76.853C166.637 71.9555 162.667 67.9853 157.77 67.9853C152.874 67.9853 148.904 71.9555 148.904 76.853C148.904 81.7504 152.874 85.7206 157.77 85.7206Z" fill="white"/>
<path fill-rule="evenodd" clip-rule="evenodd" d="M602.06 528.104C602.064 528.114 602.068 528.124 602.073 528.136C602.068 528.126 602.06 528.086 602.06 528.104Z" fill="#C5CFD6"/>
<path fill-rule="evenodd" clip-rule="evenodd" d="M602.068 528.119C602.068 528.12 602.07 528.124 602.07 528.128C602.07 528.119 602.053 528.091 602.068 528.119Z" fill="#C5CFD6"/>
<path fill-rule="evenodd" clip-rule="evenodd" d="M601.998 527.953C602.012 527.992 602.03 528.029 602.046 528.068C602.038 528.049 602.03 528.033 602.022 528.013C602.23 528.523 602.098 528.192 601.998 527.953Z" fill="#C5CFD6"/>
<path fill-rule="evenodd" clip-rule="evenodd" d="M602.043 528.071C602.052 528.089 602.06 528.109 602.068 528.127C602.126 528.239 602.043 528.071 602.043 528.071Z" fill="#C5CFD6"/>
<path fill-rule="evenodd" clip-rule="evenodd" d="M602.067 528.12C602.067 528.118 602.067 528.118 602.065 528.116C602.067 528.118 602.067 528.118 602.067 528.12Z" fill="#C5CFD6"/>
<path fill-rule="evenodd" clip-rule="evenodd" d="M602.077 528.134C602.088 528.159 602.022 528.042 602.077 528.134V528.134Z" fill="#C5CFD6"/>
<path fill-rule="evenodd" clip-rule="evenodd" d="M602.068 528.12L602.064 528.116C602.066 528.118 602.066 528.12 602.068 528.12Z" fill="#C5CFD6"/>
<path d="M536.062 452.25H668.07C670.247 452.25 672.011 454.014 672.011 456.191V540.927C672.011 543.103 670.247 544.868 668.07 544.868H536.062C533.886 544.868 532.122 543.103 532.122 540.927V456.191C532.122 454.014 533.886 452.25 536.062 452.25Z" fill="#DDE3E9"/>
<path fill-rule="evenodd" clip-rule="evenodd" d="M620.069 478.853L660.513 544.868H579.624L620.069 478.853Z" fill="#AFB9C5"/>
<path fill-rule="evenodd" clip-rule="evenodd" d="M578.368 496.535L614.124 544.868H542.612L578.368 496.535Z" fill="#C5CFD6"/>
<path d="M563.153 496.588C555.808 496.588 549.854 490.633 549.854 483.287C549.854 475.941 555.808 469.985 563.153 469.985C570.499 469.985 576.453 475.941 576.453 483.287C576.453 490.633 570.499 496.588 563.153 496.588Z" fill="white"/>
<path fill-rule="evenodd" clip-rule="evenodd" d="M248.696 316.491C243.956 310.812 240.748 303.852 241.284 296.053C242.828 273.583 273.473 278.526 279.434 289.867C285.396 301.208 284.687 329.976 276.983 332.003C273.911 332.811 267.365 330.831 260.704 326.733L264.885 356.926H240.197L248.696 316.491Z" fill="#915B3C"/>
<path fill-rule="evenodd" clip-rule="evenodd" d="M246.799 321.549C243.7 307.478 234.873 297.886 236.221 291.597C237.12 287.404 239.515 284.797 243.407 283.775C245.421 275.463 251.913 271.927 262.885 273.168C279.343 275.03 289.388 282.007 285.05 297.358C281.063 297.358 276.249 295.886 269.592 298.408C267.48 299.208 265.969 301.689 265.06 305.852H262.052C259.133 300.912 256.254 299.097 253.416 300.406C250.578 301.716 249.933 304.896 251.481 309.948L249.999 321.549H246.799Z" fill="#191847"/>
<path fill-rule="evenodd" clip-rule="evenodd" d="M171.274 488.177H289.574C298.664 488.177 306.033 495.698 306.033 504.977V601.576C306.033 610.855 298.664 618.376 289.574 618.376H171.274C162.184 618.376 154.815 610.855 154.815 601.576V504.977C154.815 495.698 162.184 488.177 171.274 488.177ZM187.733 517.577C185.461 517.577 183.618 519.457 183.618 521.777V584.777C183.618 587.096 185.461 588.977 187.733 588.977H273.115C275.387 588.977 277.23 587.096 277.23 584.777V521.777C277.23 519.457 275.387 517.577 273.115 517.577H187.733Z" fill="#C5CFD6"/>
<path fill-rule="evenodd" clip-rule="evenodd" d="M408.037 613.126C387.756 587.847 374.033 569.106 366.868 556.903C354.601 536.009 344.561 517.417 341.393 510.315C333.837 493.379 358.787 485.449 364.433 493.349C372.98 505.305 391.232 542.927 419.19 606.215L408.037 613.126Z" fill="#B28B67"/>
<path fill-rule="evenodd" clip-rule="evenodd" d="M366.477 605.777L328.731 508.795C320.658 491.116 359.644 479.495 365.577 487.723C379.047 506.402 411.062 580.087 415.075 585.652L366.477 605.777Z" fill="#012A7D"/>
<path fill-rule="evenodd" clip-rule="evenodd" d="M265.948 586.347C273.304 575.398 300.06 538.56 314.63 523.316C318.817 518.935 322.902 514.731 326.766 510.812C338.25 499.166 361.092 518.713 349.629 529.321C321.082 555.741 279.432 591.408 275.952 594.588C271.075 599.045 261.324 593.229 265.948 586.347Z" fill="#915B3C"/>
<path fill-rule="evenodd" clip-rule="evenodd" d="M267.689 581.391C265.152 583.525 263.502 585.268 262.737 586.618C261.806 588.261 260.716 590.816 259.466 594.282C261.329 595.379 278.067 605.239 309.682 623.86C313.487 620.215 314.083 617.388 311.471 615.38C308.859 613.372 306.703 611.678 305.004 610.299L287.694 585.906C287.361 585.436 286.717 585.333 286.257 585.674C286.249 585.68 286.241 585.686 286.233 585.692L282.624 588.532C279.318 588.242 276.851 587.617 275.224 586.659C273.902 585.88 272.385 584.258 270.675 581.793L270.675 581.793C270.018 580.848 268.734 580.627 267.806 581.3C267.766 581.329 267.727 581.359 267.689 581.391Z" fill="#FFCC00"/>
<path fill-rule="evenodd" clip-rule="evenodd" d="M399.313 609.349C398.162 612.484 397.587 614.831 397.587 616.387C397.587 618.281 397.896 621.044 398.514 624.676C400.666 624.676 420.006 624.676 456.534 624.676C458.042 619.589 457.172 616.842 453.923 616.436C450.675 616.031 447.976 615.664 445.828 615.337L418.86 603.066C418.342 602.83 417.733 603.068 417.502 603.598C417.498 603.607 417.494 603.616 417.491 603.625L415.757 607.917C412.75 609.349 410.306 610.065 408.426 610.065C406.899 610.065 404.789 609.436 402.097 608.176L402.097 608.176C401.064 607.693 399.843 608.156 399.37 609.21C399.349 609.256 399.331 609.302 399.313 609.349Z" fill="#FFCC00"/>
<path fill-rule="evenodd" clip-rule="evenodd" d="M315.149 513.639C283.778 508.422 262.764 504.855 252.109 502.938C221.739 497.472 212.883 480.79 218.119 444.394H274.076C281.481 446.577 312.422 460.076 366.898 484.892C376.7 489.858 374.874 504.501 373.083 509.326C373.01 509.522 356.487 538.422 323.513 596.025L277.738 566.26L315.235 517.146C316.226 515.111 316.197 513.941 315.149 513.639Z" fill="#003399"/>
<path fill-rule="evenodd" clip-rule="evenodd" d="M319.181 430.648L351.995 455.243C360.894 457.694 368.33 460.744 374.301 464.392C375.711 465.704 377.416 468.361 371.567 467.902C365.717 467.443 359.544 467.228 358.737 469.265C357.929 471.301 361.469 473.737 359.838 476.485C358.75 478.317 353.611 473.723 344.421 462.705L311.927 448.951L319.181 430.648ZM193.193 431.497L214.69 431.584C201.417 475.32 194.251 498.526 193.193 501.202C190.813 507.224 195.85 516.394 198.004 521.322C190.988 524.526 191.736 512.659 182.886 516.862C174.808 520.698 168.663 527.649 159.33 521.771C158.182 521.048 156.925 518.327 159.963 516.201C167.532 510.903 178.439 501.632 179.913 498.58C181.923 494.419 186.349 472.058 193.193 431.497Z" fill="#915B3C"/>
<path fill-rule="evenodd" clip-rule="evenodd" d="M254.285 339.425L263.18 337.868C296.184 366.969 309.74 422.876 350.194 452.492L340.457 464.812C270.276 455.942 252.881 387.749 254.285 339.425Z" fill="#0489E2"/>
<path fill-rule="evenodd" clip-rule="evenodd" d="M215.508 453.527C251.175 453.527 277.41 453.527 294.215 453.527C297.811 453.527 297.134 448.226 296.614 445.551C290.614 414.68 267.191 381.404 267.191 337.46L244.488 333.826C225.71 364.653 219.216 402.606 215.508 453.527Z" fill="#DDE3E9"/>
<path fill-rule="evenodd" clip-rule="evenodd" d="M216.14 364.127C212.843 363.16 210.232 360.904 208.307 357.358C200.009 342.075 203.006 333.661 211.874 330.895C220.742 328.129 228.65 333.826 242.779 333.826C243.547 333.826 244.251 333.876 244.89 333.974L251.997 334.388C272.389 404.927 278.012 451.99 268.869 475.577H206.92C203.25 484.312 199.737 491.662 196.383 497.627H179.504C177.915 445.197 190.127 400.697 216.14 364.127Z" fill="#0489E2"/>
<path fill-rule="evenodd" clip-rule="evenodd" d="M220.41 439.349C222.358 455.988 225.525 468.064 229.91 475.576H206.92C211.202 465.386 215.698 453.311 220.41 439.349Z" fill="black" fill-opacity="0.1"/>
<path fill-rule="evenodd" clip-rule="evenodd" d="M568.751 228.525C572.044 221.542 573.304 213.64 570.307 205.83C561.671 183.325 530.499 196.101 527.663 209.161C524.827 222.222 534.528 251.354 543.382 251.474C546.913 251.522 553.283 247.851 559.119 241.993L564.045 273.813L590.396 267.578L568.751 228.525Z" fill="#D4A181"/>
<path fill-rule="evenodd" clip-rule="evenodd" d="M559.96 229.071C565.16 234.425 571.185 237.952 575.811 236.844C584.596 234.741 587.456 221.993 583.815 209.895C583.687 209.47 583.551 209.05 583.407 208.635C594.54 212.519 605.327 222.846 617.624 219.902C634.354 215.897 631.268 181.98 607.894 187.577C591.998 191.382 584.847 195.475 579.096 200.371C576.687 197.1 573.752 194.568 570.639 193.054C569.85 192.553 568.751 192.157 567.4 191.869C566.565 191.664 565.726 191.535 564.89 191.487C560.395 191.029 554.205 191.43 547.564 192.784C546.324 193.037 545.114 193.313 543.942 193.61C542.137 187.679 535.661 184.078 529.461 185.562C523.249 187.049 519.665 193.079 521.456 199.03C523.189 204.785 529.314 208.359 535.334 207.243C539.027 207.433 543.606 207.126 548.532 206.279C548.572 208.082 548.895 210.063 549.548 212.233C550.125 214.149 550.957 216.128 551.985 218.094C552.674 216.65 553.841 215.535 555.263 215.195C559.242 214.242 562.956 216.715 563.958 220.044C565.23 224.27 563.604 227.936 559.96 229.071Z" fill="#191847"/>
<path fill-rule="evenodd" clip-rule="evenodd" d="M625.178 363.284L582.088 501.338L561.821 604.99H541.479L561.785 363.284H625.178Z" fill="#BA8B72"/>
<path fill-rule="evenodd" clip-rule="evenodd" d="M644.543 363.284C641.536 435.002 642.722 474.119 643.395 480.635C644.068 487.151 647.888 530.79 673.921 607.177H652.763C618.287 533.897 606.252 490.258 602.298 480.635C598.344 471.012 586.666 431.896 569.616 363.284H644.543Z" fill="#D4A181"/>
<path fill-rule="evenodd" clip-rule="evenodd" d="M626.103 363.284C614.895 410.789 595.509 486.618 567.946 590.772H538.193C535.996 483.868 545.344 413.507 561.533 363.284H626.103Z" fill="#1FAED2"/>
<path fill-rule="evenodd" clip-rule="evenodd" d="M644.694 363.284C641.749 435.002 649.38 505.658 673.019 591.889H641.274C606.735 519.702 581.98 449.395 565.061 363.284H644.694Z" fill="#1BBFE9"/>
<path fill-rule="evenodd" clip-rule="evenodd" d="M676.937 621.395L675.769 603.896C668.934 605.755 660.373 605.026 650.086 601.709C639.025 608.994 625.101 613.968 608.313 616.632L608.313 616.632C607.032 616.835 606.171 617.965 606.39 619.156C606.404 619.233 606.422 619.309 606.445 619.384L608.059 624.677H650.086H674.602L676.937 621.395Z" fill="#191847"/>
<path fill-rule="evenodd" clip-rule="evenodd" d="M566.362 621.395L565.194 603.896C558.359 605.755 549.798 605.026 539.511 601.709C528.45 608.994 514.526 613.968 497.738 616.632L497.738 616.632C496.457 616.835 495.596 617.965 495.815 619.156C495.829 619.233 495.847 619.309 495.87 619.384L497.484 624.677H539.511H564.027L566.362 621.395Z" fill="#191847"/>
<path fill-rule="evenodd" clip-rule="evenodd" d="M540.555 302.356L496.53 287.803C488.401 281.347 480.704 276.55 473.44 273.409C471.318 272.935 467.785 272.999 472.088 277.927C476.39 282.855 480.687 288.216 479.383 290.145C478.08 292.073 473.528 290.374 472.13 293.458C471.198 295.514 478.762 297.352 494.823 298.972L528.843 319.687L540.555 302.356ZM481.627 329.626L462.283 323.206C458.045 314.694 454.212 310.677 450.783 311.154C447.926 310.402 454.748 320.929 449.576 320.73C444.405 320.532 430.538 313.833 428.794 315.904C426.215 318.969 430.563 326.466 434.605 329.901C442.161 336.323 447.699 338.058 460.801 339.417C467.651 340.128 475.377 342.489 483.977 346.501L481.627 329.626Z" fill="#D4A181"/>
<path fill-rule="evenodd" clip-rule="evenodd" d="M559.39 294.112C545.41 296.169 526.244 296.268 503.992 287.283L499.507 305.223C515.787 316.128 537.168 323.826 553.913 320.719C567.11 318.271 570.835 301.777 559.39 294.112Z" fill="#3E3EAC"/>
<path fill-rule="evenodd" clip-rule="evenodd" d="M545.627 323.159C531.544 328.971 505.922 328.703 468.761 322.355C463.53 340.682 461.965 353.411 464.065 360.541C496.891 370.714 523.805 373.335 544.973 370.483C546.686 382.482 550.476 393.562 557.663 403.106C572.437 422.726 630.064 393.435 651.543 394.082C656.487 352.025 628.16 339.664 623.008 314.051C617.366 286.002 585.026 246.516 581.541 247.06L549.756 252.017C552.294 273.715 548.198 298.703 545.627 323.159Z" fill="#4141D7"/>
</g>
</svg>
