<svg width="256" height="256" viewBox="0 0 256 256" fill="none" xmlns="http://www.w3.org/2000/svg">
<g clip-path="url(#clip0)">
<path d="M191.303 87.008C191.207 87.0075 191.11 87.007 191.014 87.007C174.997 86.982 159.822 80.085 149.294 68.014C133.611 50.032 110.494 38.703 84.734 38.8175C37.978 39.0245 -0.597521 78.3075 0.00697881 125.06C0.608479 171.553 38.4845 209.057 85.1205 209.057C98.292 209.057 110.763 206.064 121.894 200.721C131.491 196.115 142.926 197.329 151.378 203.802C162.309 212.174 175.973 217.159 190.801 217.184C226.492 217.243 255.791 188.173 255.999 152.483C256.208 116.459 227.278 87.2195 191.303 87.008Z" fill="url(#paint0_linear)"/>
<path opacity="0.1" d="M212.227 24.759H102.286C98.148 24.759 94.79 28.117 94.79 32.255V73.3715H55.1385C53.0605 73.3715 51.376 75.056 51.376 77.134V112.418C51.376 114.496 53.0605 116.181 55.1385 116.181H94.79V177.435H42.825C40.063 177.435 37.8235 179.674 37.8235 182.437V216.749C37.8235 219.511 40.0625 221.75 42.825 221.75H166.24C169.002 221.75 171.241 219.511 171.241 216.749V196.78H212.227C216.365 196.78 219.723 193.422 219.723 189.284V32.255C219.723 28.1175 216.365 24.759 212.227 24.759Z" fill="#590BB2"/>
<path d="M189.655 233.28C188.274 233.28 187.155 232.161 187.155 230.78C187.155 229.124 185.808 227.776 184.151 227.776C182.77 227.776 181.651 226.657 181.651 225.276C181.651 223.895 182.77 222.776 184.151 222.776C185.808 222.776 187.155 221.428 187.155 219.771C187.155 218.39 188.274 217.271 189.655 217.271C191.036 217.271 192.155 218.39 192.155 219.771C192.155 221.428 193.503 222.776 195.16 222.776C196.541 222.776 197.66 223.895 197.66 225.276C197.66 226.657 196.541 227.776 195.16 227.776C193.503 227.776 192.155 229.123 192.155 230.78C192.155 232.161 191.036 233.28 189.655 233.28Z" fill="#27D6FD"/>
<path d="M62.0235 37.265C60.643 37.265 59.5235 36.146 59.5235 34.765C59.5235 33.107 58.1745 31.7575 56.516 31.7575C55.1355 31.7575 54.016 30.6385 54.016 29.2575C54.016 27.8765 55.1355 26.7575 56.516 26.7575C58.1745 26.7575 59.5235 25.4085 59.5235 23.7495C59.5235 22.3685 60.643 21.2495 62.0235 21.2495C63.404 21.2495 64.5235 22.3685 64.5235 23.7495C64.5235 25.408 65.8725 26.7575 67.531 26.7575C68.9115 26.7575 70.031 27.8765 70.031 29.2575C70.031 30.6385 68.9115 31.7575 67.531 31.7575C65.8725 31.7575 64.5235 33.1065 64.5235 34.765C64.5235 36.146 63.404 37.265 62.0235 37.265Z" fill="#0099FF"/>
<path d="M51.376 75.494C50.713 75.494 50.077 75.231 49.608 74.7615L44.1005 69.2535C43.6315 68.7845 43.3685 68.149 43.3685 67.486C43.3685 66.823 43.632 66.187 44.1005 65.7185L49.608 60.211C50.5845 59.2345 52.167 59.2345 53.1435 60.211L58.651 65.7185C59.12 66.1875 59.383 66.823 59.383 67.486C59.383 68.149 59.1195 68.785 58.651 69.2535L53.1435 74.7615C52.675 75.231 52.039 75.494 51.376 75.494ZM49.404 67.486L51.376 69.458L53.348 67.486L51.376 65.5145L49.404 67.486Z" fill="#0099FF"/>
<path d="M78.554 67.3395C77.1735 67.3395 76.054 66.2205 76.054 64.8395C76.054 63.181 74.705 61.8315 73.0465 61.8315C71.666 61.8315 70.5465 60.7125 70.5465 59.3315C70.5465 57.9505 71.666 56.8315 73.0465 56.8315C74.705 56.8315 76.054 55.4825 76.054 53.824C76.054 52.443 77.1735 51.324 78.554 51.324C79.9345 51.324 81.054 52.443 81.054 53.824C81.054 55.482 82.403 56.8315 84.0615 56.8315C85.442 56.8315 86.5615 57.9505 86.5615 59.3315C86.5615 60.7125 85.442 61.8315 84.0615 61.8315C82.403 61.8315 81.054 63.1805 81.054 64.8395C81.054 66.22 79.9345 67.3395 78.554 67.3395Z" fill="#003399"/>
<path d="M219.723 42.755V199.784C219.723 203.922 216.365 207.28 212.227 207.28H102.286C98.148 207.28 94.79 203.922 94.79 199.784V42.755C94.79 38.617 98.148 35.259 102.286 35.259H212.227C216.365 35.259 219.723 38.617 219.723 42.755Z" fill="#003399"/>
<path d="M94.79 187.935V199.783C94.79 203.921 98.148 207.279 102.286 207.279H212.227C216.365 207.279 219.723 203.921 219.723 199.783V187.935H94.79Z" fill="#9191F1"/>
<path d="M122.066 35.2576V207.279H102.286C98.15 207.279 94.789 203.923 94.789 199.782V42.7546C94.789 38.6186 98.15 35.2576 102.286 35.2576H122.066Z" fill="#E8E6ED"/>
<path d="M113.104 94.7185V130.003C113.104 132.079 111.424 133.764 109.343 133.764H94.789V90.9525H109.343C111.424 90.9525 113.104 92.638 113.104 94.7185Z" fill="#DDD9E4"/>
<path d="M219.723 59.3315V42.755C219.723 38.615 216.367 35.259 212.227 35.259H102.286C98.146 35.259 94.79 38.615 94.79 42.755V59.332L219.723 59.3315Z" fill="#0099FF"/>
<path d="M159.734 115.617H151.867C150.559 115.617 149.39 116.573 149.266 117.875C149.124 119.369 150.295 120.626 151.759 120.626H159.734C161.117 120.626 162.238 119.505 162.238 118.122C162.238 116.739 161.117 115.617 159.734 115.617Z" fill="#E2CCFF"/>
<path d="M189.954 115.617H171.244C169.861 115.617 168.74 116.738 168.74 118.121C168.74 119.504 169.861 120.625 171.244 120.625H190.062C191.526 120.625 192.697 119.368 192.554 117.875C192.43 116.573 191.262 115.617 189.954 115.617Z" fill="#27D6FD"/>
<path d="M177.74 126.102H151.867C150.559 126.102 149.392 127.058 149.267 128.36C149.125 129.853 150.295 131.11 151.76 131.11H177.74C179.123 131.11 180.244 129.989 180.244 128.606C180.244 127.223 179.123 126.102 177.74 126.102Z" fill="#0099FF"/>
<path d="M204.958 126.102H189.249C187.866 126.102 186.745 127.223 186.745 128.606C186.745 129.989 187.866 131.11 189.249 131.11H205.066C206.53 131.11 207.701 129.853 207.559 128.359C207.434 127.058 206.266 126.102 204.958 126.102Z" fill="#27D6FD"/>
<path d="M170.237 136.587H151.867C150.559 136.587 149.39 137.543 149.266 138.845C149.124 140.338 150.295 141.595 151.759 141.595H170.238C171.621 141.595 172.742 140.474 172.742 139.091C172.742 137.708 171.621 136.587 170.237 136.587Z" fill="#0099FF"/>
<path d="M189.955 136.587H181.748C180.365 136.587 179.244 137.708 179.244 139.091C179.244 140.474 180.365 141.595 181.748 141.595H190.063C191.527 141.595 192.698 140.338 192.555 138.844C192.431 137.543 191.263 136.587 189.955 136.587Z" fill="#27D6FD"/>
<path d="M204.959 147.072H174.246C172.863 147.072 171.742 148.193 171.742 149.576C171.742 150.959 172.863 152.08 174.246 152.08H205.067C206.531 152.08 207.702 150.823 207.559 149.33C207.435 148.028 206.267 147.072 204.959 147.072Z" fill="#27D6FD"/>
<path d="M162.735 147.072H151.867C150.559 147.072 149.39 148.028 149.266 149.33C149.124 150.824 150.295 152.081 151.759 152.081H162.735C164.118 152.081 165.239 150.96 165.239 149.577C165.239 148.193 164.118 147.072 162.735 147.072Z" fill="#0099FF"/>
<path d="M145.23 98.1865H136.863C135.555 98.1865 134.386 99.1425 134.262 100.444C134.12 101.938 135.291 103.195 136.755 103.195H145.23C146.613 103.195 147.735 102.074 147.735 100.691C147.734 99.308 146.613 98.1865 145.23 98.1865Z" fill="white"/>
<path d="M189.955 98.1865H157.408C156.025 98.1865 154.903 99.3075 154.903 100.69C154.903 102.073 156.024 103.194 157.408 103.194H190.062C191.527 103.194 192.697 101.937 192.555 100.444C192.431 99.143 191.263 98.1865 189.955 98.1865Z" fill="white"/>
<path d="M145.23 165.987H136.863C135.555 165.987 134.386 166.943 134.262 168.245C134.12 169.739 135.291 170.996 136.755 170.996H145.23C146.613 170.996 147.735 169.875 147.735 168.492C147.734 167.108 146.613 165.987 145.23 165.987Z" fill="white"/>
<path d="M189.955 165.987H157.408C156.025 165.987 154.903 167.108 154.903 168.492C154.903 169.875 156.024 170.996 157.408 170.996H190.062C191.527 170.996 192.697 169.739 192.555 168.245C192.431 166.943 191.263 165.987 189.955 165.987Z" fill="white"/>
<path d="M109.343 126.681H55.1385C53.0605 126.681 51.376 124.996 51.376 122.918V87.6335C51.376 85.5555 53.0605 83.871 55.1385 83.871H109.343C111.421 83.871 113.106 85.5555 113.106 87.6335V122.918C113.106 124.996 111.421 126.681 109.343 126.681Z" fill="#4747F5"/>
<path d="M70.545 113.797C69.905 113.797 69.2645 113.553 68.7765 113.065L62.756 107.044C61.779 106.067 61.779 104.484 62.756 103.507L68.7765 97.4865C69.7525 96.51 71.3375 96.51 72.3135 97.4865C73.2905 98.4635 73.2905 100.047 72.3135 101.024L68.062 105.275L72.3135 109.527C73.2905 110.504 73.2905 112.087 72.3135 113.064C71.8255 113.553 71.185 113.797 70.545 113.797Z" fill="#F5F4F9"/>
<path d="M93.937 96.7545C94.577 96.7545 95.2175 96.999 95.7055 97.487L101.726 103.508C102.703 104.485 102.703 106.068 101.726 107.045L95.705 113.065C94.729 114.042 93.144 114.042 92.168 113.065C91.191 112.088 91.191 110.505 92.168 109.528L96.4195 105.276L92.168 101.025C91.191 100.048 91.191 98.464 92.168 97.487C92.6565 96.999 93.297 96.7545 93.937 96.7545Z" fill="#F5F4F9"/>
<path d="M78.839 113.798C78.4225 113.798 78 113.693 77.612 113.474C76.409 112.795 75.9845 111.269 76.664 110.066L83.463 98.0259C84.142 96.8234 85.668 96.3989 86.8705 97.0779C88.0735 97.7574 88.498 99.2829 87.8185 100.486L81.0195 112.526C80.5595 113.34 79.712 113.798 78.839 113.798Z" fill="#F5F4F9"/>
<path d="M166.24 232.25H42.825C40.063 232.25 37.8235 230.011 37.8235 227.248V192.936C37.8235 190.174 40.0625 187.935 42.825 187.935H166.24C169.002 187.935 171.241 190.174 171.241 192.936V227.248C171.241 230.01 169.002 232.25 166.24 232.25Z" fill="#F5F4F9"/>
<path d="M113.82 44.7589C112.44 44.7589 111.32 45.8779 111.32 47.2589V47.3314C111.32 48.7124 112.44 49.8314 113.82 49.8314C115.201 49.8314 116.32 48.7124 116.32 47.3314V47.2589C116.32 45.8784 115.201 44.7589 113.82 44.7589Z" fill="white"/>
<path d="M123.478 44.7589C122.098 44.7589 120.978 45.8779 120.978 47.2589V47.3314C120.978 48.7124 122.098 49.8314 123.478 49.8314C124.859 49.8314 125.978 48.7124 125.978 47.3314V47.2589C125.978 45.8784 124.859 44.7589 123.478 44.7589Z" fill="white"/>
<path d="M133.135 44.7589C131.754 44.7589 130.635 45.8779 130.635 47.2589V47.3314C130.635 48.7124 131.754 49.8314 133.135 49.8314C134.516 49.8314 135.635 48.7124 135.635 47.3314V47.2589C135.635 45.8784 134.516 44.7589 133.135 44.7589Z" fill="white"/>
<path d="M212.227 32.7584H102.286C96.774 32.7584 92.29 37.2429 92.29 42.7544V70.1054C92.29 71.4864 93.4095 72.6054 94.79 72.6054C96.1705 72.6054 97.29 71.4864 97.29 70.1054V61.8309H217.223V199.782C217.223 202.536 214.982 204.777 212.227 204.777H173.741V192.935C173.741 188.799 170.376 185.434 166.24 185.434H108.564C107.184 185.434 106.064 186.553 106.064 187.934C106.064 189.315 107.184 190.434 108.564 190.434H166.24C167.62 190.434 168.742 191.556 168.742 192.935V227.247C168.742 228.627 167.62 229.749 166.24 229.749H42.825C41.4455 229.749 40.3235 228.627 40.3235 227.247V192.935C40.3235 191.556 41.4455 190.434 42.825 190.434H94.79C96.1705 190.434 97.29 189.315 97.29 187.934V129.18H109.344C112.797 129.18 115.606 126.371 115.606 122.918V87.6339C115.606 84.1809 112.796 81.3719 109.344 81.3719H55.1385C51.6855 81.3719 48.876 84.1809 48.876 87.6339V102.776H46.326C40.2595 102.776 35.3235 107.712 35.3235 113.778V130.067C35.3235 136.134 40.2595 141.07 46.326 141.07H66.3075C69.6335 141.07 72.339 143.776 72.339 147.101C72.339 150.427 69.633 153.133 66.3075 153.133H46.326C40.2595 153.133 35.3235 158.068 35.3235 164.135C35.3235 170.202 40.2595 175.138 46.326 175.138H65.3965C68.7065 175.138 71.399 177.83 71.399 181.14V185.435H42.825C38.689 185.435 35.3235 188.8 35.3235 192.936V227.248C35.3235 231.384 38.6885 234.75 42.825 234.75H166.24C170.376 234.75 173.741 231.385 173.741 227.248V209.778H212.227C217.739 209.778 222.223 205.294 222.223 199.783V42.7549C222.223 37.2429 217.739 32.7584 212.227 32.7584ZM53.876 87.6334C53.876 86.9374 54.4425 86.3714 55.1385 86.3714H109.344C110.04 86.3714 110.606 86.9379 110.606 87.6334V122.918C110.606 123.614 110.04 124.18 109.344 124.18H55.1385C54.4425 124.18 53.876 123.613 53.876 122.918V87.6334ZM65.3965 170.138H46.326C43.016 170.138 40.3235 167.445 40.3235 164.135C40.3235 160.826 43.016 158.133 46.326 158.133H66.3075C72.3905 158.133 77.339 153.184 77.339 147.101C77.339 141.018 72.3905 136.07 66.3075 136.07H46.326C43.016 136.07 40.3235 133.377 40.3235 130.067V113.778C40.3235 110.469 43.016 107.776 46.326 107.776H48.876V122.918C48.876 126.371 51.6855 129.18 55.1385 129.18H92.29V185.435H76.399V181.14C76.399 175.073 71.4635 170.138 65.3965 170.138ZM97.29 56.8314V42.7549C97.29 39.9999 99.531 37.7589 102.286 37.7589H212.227C214.982 37.7589 217.223 39.9999 217.223 42.7549V56.8314H97.29Z" fill="#590BB2"/>
<path d="M112.415 145.964C112.415 144.583 111.296 143.464 109.915 143.464C108.535 143.464 107.415 144.583 107.415 145.964V146.037C107.415 147.418 108.535 148.537 109.915 148.537C111.296 148.537 112.415 147.418 112.415 146.037V145.964Z" fill="#590BB2"/>
<path d="M109.915 166.136C108.535 166.136 107.415 167.255 107.415 168.636V168.709C107.415 170.09 108.535 171.209 109.915 171.209C111.296 171.209 112.415 170.09 112.415 168.709V168.636C112.415 167.256 111.296 166.136 109.915 166.136Z" fill="#590BB2"/>
<path d="M51.8925 200.413C51.8925 199.032 50.773 197.913 49.3925 197.913C48.012 197.913 46.8925 199.032 46.8925 200.413V200.47C46.8925 201.851 48.012 202.97 49.3925 202.97C50.773 202.97 51.8925 201.851 51.8925 200.47V200.413Z" fill="#590BB2"/>
<path d="M64.1455 200.413C64.1455 199.032 63.026 197.913 61.6455 197.913C60.265 197.913 59.1455 199.032 59.1455 200.413V200.47C59.1455 201.851 60.265 202.97 61.6455 202.97C63.026 202.97 64.1455 201.851 64.1455 200.47V200.413Z" fill="#590BB2"/>
<path d="M73.899 202.97C75.2795 202.97 76.399 201.851 76.399 200.47V200.413C76.399 199.032 75.2795 197.913 73.899 197.913C72.5185 197.913 71.399 199.032 71.399 200.413V200.47C71.399 201.851 72.5185 202.97 73.899 202.97Z" fill="#590BB2"/>
<path d="M88.6525 200.47V200.413C88.6525 199.032 87.533 197.913 86.1525 197.913C84.772 197.913 83.6525 199.032 83.6525 200.413V200.47C83.6525 201.851 84.772 202.97 86.1525 202.97C87.533 202.97 88.6525 201.851 88.6525 200.47Z" fill="#590BB2"/>
<path d="M100.906 200.47V200.413C100.906 199.032 99.786 197.913 98.4055 197.913C97.025 197.913 95.9055 199.032 95.9055 200.413V200.47C95.9055 201.851 97.025 202.97 98.4055 202.97C99.786 202.97 100.906 201.851 100.906 200.47Z" fill="#590BB2"/>
<path d="M113.159 200.47V200.413C113.159 199.032 112.039 197.913 110.659 197.913C109.278 197.913 108.159 199.032 108.159 200.413V200.47C108.159 201.851 109.278 202.97 110.659 202.97C112.039 202.97 113.159 201.851 113.159 200.47Z" fill="#590BB2"/>
<path d="M125.413 200.47V200.413C125.413 199.032 124.293 197.913 122.913 197.913C121.532 197.913 120.413 199.032 120.413 200.413V200.47C120.413 201.851 121.532 202.97 122.913 202.97C124.293 202.97 125.413 201.851 125.413 200.47Z" fill="#590BB2"/>
<path d="M135.166 202.97C136.547 202.97 137.666 201.851 137.666 200.47V200.413C137.666 199.032 136.547 197.913 135.166 197.913C133.785 197.913 132.666 199.032 132.666 200.413V200.47C132.666 201.851 133.785 202.97 135.166 202.97Z" fill="#590BB2"/>
<path d="M147.419 202.97C148.8 202.97 149.919 201.851 149.919 200.47V200.413C149.919 199.032 148.8 197.913 147.419 197.913C146.038 197.913 144.919 199.032 144.919 200.413V200.47C144.919 201.851 146.038 202.97 147.419 202.97Z" fill="#590BB2"/>
<path d="M159.672 202.97C161.053 202.97 162.172 201.851 162.172 200.47V200.413C162.172 199.032 161.053 197.913 159.672 197.913C158.291 197.913 157.172 199.032 157.172 200.413V200.47C157.172 201.851 158.291 202.97 159.672 202.97Z" fill="#590BB2"/>
<path d="M53.019 210.064V210.121C53.019 211.502 54.1385 212.621 55.519 212.621C56.8995 212.621 58.019 211.502 58.019 210.121V210.064C58.019 208.683 56.8995 207.564 55.519 207.564C54.1385 207.564 53.019 208.683 53.019 210.064Z" fill="#590BB2"/>
<path d="M65.2725 210.064V210.121C65.2725 211.502 66.392 212.621 67.7725 212.621C69.153 212.621 70.2725 211.502 70.2725 210.121V210.064C70.2725 208.683 69.153 207.564 67.7725 207.564C66.392 207.564 65.2725 208.683 65.2725 210.064Z" fill="#590BB2"/>
<path d="M82.526 210.121V210.064C82.526 208.683 81.4065 207.564 80.026 207.564C78.6455 207.564 77.526 208.683 77.526 210.064V210.121C77.526 211.502 78.6455 212.621 80.026 212.621C81.4065 212.621 82.526 211.502 82.526 210.121Z" fill="#590BB2"/>
<path d="M94.779 210.121V210.064C94.779 208.683 93.6595 207.564 92.279 207.564C90.8985 207.564 89.779 208.683 89.779 210.064V210.121C89.779 211.502 90.8985 212.621 92.279 212.621C93.6595 212.621 94.779 211.502 94.779 210.121Z" fill="#590BB2"/>
<path d="M104.533 207.564C103.152 207.564 102.033 208.683 102.033 210.064V210.121C102.033 211.502 103.152 212.621 104.533 212.621C105.913 212.621 107.033 211.502 107.033 210.121V210.064C107.033 208.683 105.913 207.564 104.533 207.564Z" fill="#590BB2"/>
<path d="M119.286 210.121V210.064C119.286 208.683 118.167 207.564 116.786 207.564C115.406 207.564 114.286 208.683 114.286 210.064V210.121C114.286 211.502 115.406 212.621 116.786 212.621C118.167 212.621 119.286 211.502 119.286 210.121Z" fill="#590BB2"/>
<path d="M131.539 210.121V210.064C131.539 208.683 130.42 207.564 129.039 207.564C127.659 207.564 126.539 208.683 126.539 210.064V210.121C126.539 211.502 127.659 212.621 129.039 212.621C130.42 212.621 131.539 211.502 131.539 210.121Z" fill="#590BB2"/>
<path d="M143.793 210.121V210.064C143.793 208.683 142.674 207.564 141.293 207.564C139.912 207.564 138.793 208.683 138.793 210.064V210.121C138.793 211.502 139.912 212.621 141.293 212.621C142.674 212.621 143.793 211.502 143.793 210.121Z" fill="#590BB2"/>
<path d="M156.046 210.121V210.064C156.046 208.683 154.927 207.564 153.546 207.564C152.165 207.564 151.046 208.683 151.046 210.064V210.121C151.046 211.502 152.165 212.621 153.546 212.621C154.927 212.621 156.046 211.502 156.046 210.121Z" fill="#590BB2"/>
<path d="M49.3925 217.214C48.012 217.214 46.8925 218.333 46.8925 219.714V219.772C46.8925 221.153 48.012 222.272 49.3925 222.272C50.773 222.272 51.8925 221.153 51.8925 219.772V219.714C51.8925 218.333 50.773 217.214 49.3925 217.214Z" fill="#590BB2"/>
<path d="M61.6455 217.214C60.265 217.214 59.1455 218.333 59.1455 219.714V219.772C59.1455 221.153 60.265 222.272 61.6455 222.272C63.026 222.272 64.1455 221.153 64.1455 219.772V219.714C64.1455 218.333 63.0265 217.214 61.6455 217.214Z" fill="#590BB2"/>
<path d="M71.399 219.772C71.399 221.153 72.5185 222.272 73.899 222.272H122.912C124.293 222.272 125.412 221.153 125.412 219.772C125.412 218.391 124.293 217.272 122.912 217.272H73.899C72.5185 217.272 71.399 218.391 71.399 219.772Z" fill="#590BB2"/>
<path d="M132.666 219.772C132.666 221.153 133.785 222.272 135.166 222.272C136.547 222.272 137.666 221.153 137.666 219.772V219.714C137.666 218.333 136.547 217.214 135.166 217.214C133.785 217.214 132.666 218.333 132.666 219.714V219.772Z" fill="#590BB2"/>
<path d="M144.919 219.772C144.919 221.153 146.038 222.272 147.419 222.272C148.8 222.272 149.919 221.153 149.919 219.772V219.714C149.919 218.333 148.8 217.214 147.419 217.214C146.038 217.214 144.919 218.333 144.919 219.714V219.772Z" fill="#590BB2"/>
<path d="M157.172 219.772C157.172 221.153 158.291 222.272 159.672 222.272C161.053 222.272 162.172 221.153 162.172 219.772V219.714C162.172 218.333 161.053 217.214 159.672 217.214C158.291 217.214 157.172 218.333 157.172 219.714V219.772Z" fill="#590BB2"/>
</g>
<defs>
<linearGradient id="paint0_linear" x1="-57" y1="128" x2="288.5" y2="128" gradientUnits="userSpaceOnUse">
<stop offset="0.000701121" stop-color="#00CCFF"/>
<stop offset="1" stop-color="#84E6FE" stop-opacity="0.32"/>
</linearGradient>
<clipPath id="clip0">
<rect width="256" height="256" fill="white"/>
</clipPath>
</defs>
</svg>
