<svg width="256" height="256" viewBox="0 0 256 256" fill="none" xmlns="http://www.w3.org/2000/svg">
<g clip-path="url(#clip0)">
<path d="M252.813 144.71C246.9 127.405 233.744 114.63 217.887 108.609C209.672 105.489 204.214 97.681 204.094 88.8945C204.091 88.7025 204.088 88.51 204.083 88.3175C203.33 56.0265 176.339 30.1525 144.045 30.707C124.998 31.034 108.151 40.3845 97.5921 54.667C88.4996 66.9665 74.3471 74.6495 59.0521 74.6415C58.6031 74.6415 58.1536 74.646 57.7021 74.656C26.7436 75.333 0.418627 101.895 0.005627 132.858C-0.434373 165.823 26.1566 192.685 59.0216 192.685C84.4951 192.685 106.196 176.546 114.465 153.936C116.628 148.02 123.041 144.85 129.106 146.55C129.182 146.572 129.258 146.593 129.334 146.614C134.883 148.146 138.563 153.434 138.109 159.173C137.5 166.865 138.399 174.801 141.008 182.571C151.268 213.139 184.602 229.914 215.254 219.911C246.61 209.679 263.444 175.819 252.813 144.71Z" fill="url(#paint0_linear)"/>
<path opacity="0.1" d="M203.396 65.366H189.386V49.9365C189.386 48.4795 189.067 47.0405 188.453 45.7195L178.42 24.1425C176.63 20.287 171.144 20.287 169.354 24.1425L159.316 45.7185C158.701 47.04 158.382 48.4795 158.382 49.937V65.3655H52.6035C48.0295 65.3655 44.3215 69.0735 44.3215 73.648V181.615C44.3215 186.189 48.0295 189.897 52.6035 189.897H203.396C207.97 189.897 211.678 186.189 211.678 181.615V73.6485C211.678 69.074 207.97 65.366 203.396 65.366Z" fill="#590BB2"/>
<path d="M152.845 232.251H103.155L109.631 206.577L113.092 192.863H142.908L146.369 206.577L152.845 232.251Z" fill="#AAAAEC"/>
<path d="M146.369 206.577H109.63L113.091 192.863H142.908L146.369 206.577Z" fill="#8E8CA8"/>
<path d="M203.396 200.398H52.604C48.03 200.398 44.3215 196.69 44.3215 192.116V84.1496C44.3215 79.5756 48.0295 75.8671 52.604 75.8671H203.396C207.97 75.8671 211.679 79.5751 211.679 84.1496V192.116C211.678 196.69 207.97 200.398 203.396 200.398Z" fill="#F5F4F9"/>
<path d="M44.3215 144.502V192.116C44.3215 196.69 48.0295 200.398 52.6035 200.398H203.396C207.97 200.398 211.678 196.69 211.678 192.116V144.502H44.3215Z" fill="#27D6FD"/>
<path d="M211.678 96.9711V84.1491C211.678 79.5751 207.97 75.8666 203.396 75.8666H52.6035C48.0295 75.8666 44.321 79.5746 44.321 84.1491V96.9711H211.678Z" fill="#4747F5"/>
<path d="M44.3215 178.322V192.116C44.3215 196.69 48.0295 200.399 52.604 200.399H203.396C207.97 200.399 211.679 196.691 211.679 192.116V178.322H44.3215Z" fill="#9191F1"/>
<path d="M97.3605 156.344H60.486C59.103 156.344 57.9815 155.223 57.9815 153.84C57.9815 152.457 59.1025 151.335 60.486 151.335H97.3605C98.7435 151.335 99.865 152.457 99.865 153.84C99.865 155.223 98.7435 156.344 97.3605 156.344Z" fill="#F5F4F9"/>
<path d="M68.8575 138.346H60.4855C59.1025 138.346 57.981 137.225 57.981 135.842C57.981 134.459 59.102 133.337 60.4855 133.337H68.8575C70.2405 133.337 71.362 134.459 71.362 135.842C71.362 137.225 70.241 138.346 68.8575 138.346Z" fill="#27D6FD"/>
<path d="M97.3605 166.277H60.486C59.103 166.277 57.9815 165.156 57.9815 163.773C57.9815 162.39 59.1025 161.268 60.486 161.268H97.3605C98.7435 161.268 99.865 162.39 99.865 163.773C99.865 165.156 98.7435 166.277 97.3605 166.277Z" fill="#F5F4F9"/>
<path d="M67.0615 126.437C66.422 126.437 65.7815 126.193 65.294 125.705L59.276 119.687C58.2995 118.71 58.2995 117.127 59.276 116.151L65.294 110.133C66.2695 109.157 67.854 109.157 68.8295 110.133C69.806 111.109 69.806 112.692 68.8295 113.669L64.5795 117.919L68.8295 122.169C69.806 123.145 69.806 124.728 68.8295 125.705C68.3415 126.193 67.7015 126.437 67.0615 126.437Z" fill="#4747F5"/>
<path d="M90.4445 126.437C89.805 126.437 89.1645 126.193 88.677 125.705C87.7005 124.728 87.7005 123.145 88.677 122.169L92.927 117.919L88.677 113.669C87.7005 112.692 87.7005 111.109 88.677 110.133C89.6525 109.157 91.237 109.157 92.2125 110.133L98.2305 116.151C99.207 117.127 99.4765 118.024 98.5 119L92.2125 125.705C91.7245 126.193 91.0845 126.437 90.4445 126.437Z" fill="#4747F5"/>
<path d="M75.3525 126.437C74.936 126.437 74.514 126.333 74.126 126.114C72.923 125.435 72.499 123.91 73.178 122.707L79.9745 110.671C80.6535 109.469 82.179 109.045 83.3805 109.723C84.583 110.402 85.0075 111.927 84.3285 113.13L77.532 125.166C77.0725 125.98 76.225 126.437 75.3525 126.437Z" fill="#4747F5"/>
<path d="M169.354 34.6436L159.316 56.2196C158.701 57.5411 158.383 58.9806 158.383 60.4381V178.322H189.386V60.4376C189.386 58.9806 189.068 57.5416 188.454 56.2206L178.42 34.6436C176.629 30.7886 171.144 30.7886 169.354 34.6436Z" fill="#0099FF"/>
<path d="M158.383 63.3115H173.885V178.322H158.383V63.3115Z" fill="#8FD2FF"/>
<path d="M169.354 34.6436L159.316 56.2196C158.701 57.5411 158.383 58.9806 158.383 60.4381V66.8116C160.168 67.7716 162.213 68.3166 164.383 68.3166C166.889 68.3166 169.226 67.5871 171.191 66.3296C172.849 65.2686 174.981 65.3211 176.646 66.3716C178.597 67.6031 180.909 68.3166 183.39 68.3166C185.56 68.3166 187.6 67.7716 189.385 66.8116V60.4376C189.385 58.9806 189.067 57.5416 188.453 56.2206L178.42 34.6436C176.629 30.7886 171.144 30.7886 169.354 34.6436Z" fill="#FFD5B8"/>
<path d="M169.354 34.6436L163.863 46.4551C166.599 48.6901 170.084 50.0356 173.885 50.0356C177.69 50.0356 181.18 48.6906 183.911 46.4501L178.42 34.6436C176.629 30.7886 171.144 30.7886 169.354 34.6436Z" fill="#4747F5"/>
<path d="M122.017 90.1486L111.979 111.725C111.364 113.046 111.046 114.486 111.046 115.943V178.322H142.048V115.943C142.048 114.486 141.73 113.047 141.116 111.726L131.083 90.1486C129.292 86.2936 123.807 86.2936 122.017 90.1486Z" fill="#5FBCFB"/>
<path d="M111.046 118.816H126.547V178.322H111.046V118.816Z" fill="#B7DEF8"/>
<path d="M122.017 90.1486L111.979 111.725C111.364 113.046 111.046 114.486 111.046 115.943V122.317C112.831 123.277 114.876 123.822 117.046 123.822C119.551 123.822 121.889 123.092 123.854 121.835C125.512 120.774 127.644 120.826 129.309 121.877C131.26 123.108 133.572 123.822 136.053 123.822C138.223 123.822 140.263 123.277 142.048 122.317V115.943C142.048 114.486 141.729 113.047 141.115 111.726L131.082 90.1486C129.292 86.2936 123.807 86.2936 122.017 90.1486Z" fill="#FFD5B8"/>
<path d="M122.017 90.1486L116.526 101.96C119.262 104.195 122.746 105.54 126.547 105.54C130.352 105.54 133.842 104.195 136.573 101.955L131.083 90.1486C129.292 86.2936 123.807 86.2936 122.017 90.1486Z" fill="#4747F5"/>
<path d="M58.5055 86.387V86.4505C58.5055 87.831 59.6245 88.9505 61.0055 88.9505C62.3865 88.9505 63.5055 87.831 63.5055 86.4505V86.387C63.5055 85.0065 62.3865 83.887 61.0055 83.887C59.6245 83.887 58.5055 85.0065 58.5055 86.387Z" fill="white"/>
<path d="M66.9715 86.387V86.4505C66.9715 87.831 68.0905 88.9505 69.4715 88.9505C70.8525 88.9505 71.9715 87.831 71.9715 86.4505V86.387C71.9715 85.0065 70.8525 83.887 69.4715 83.887C68.0905 83.887 66.9715 85.0065 66.9715 86.387Z" fill="white"/>
<path d="M75.438 86.387V86.4505C75.438 87.831 76.557 88.9505 77.938 88.9505C79.319 88.9505 80.438 87.831 80.438 86.4505V86.387C80.438 85.0065 79.319 83.887 77.938 83.887C76.557 83.887 75.438 85.0065 75.438 86.387Z" fill="white"/>
<path d="M203.396 73.367H191.887V60.439C191.887 58.63 191.484 56.8075 190.722 55.168L180.687 33.588C179.443 30.912 176.837 29.2505 173.886 29.2505C170.935 29.2505 168.329 30.9125 167.084 33.588L157.05 55.1685C156.288 56.808 155.885 58.6305 155.885 60.4395V94.4715H135.85L133.349 89.0935C132.105 86.418 129.499 84.756 126.548 84.756C123.597 84.756 120.991 86.418 119.746 89.0935L117.245 94.4715H46.8215V84.1495C46.8215 80.9615 49.4155 78.3675 52.6035 78.3675H144.612C145.993 78.3675 147.112 77.248 147.112 75.8675C147.112 74.487 145.993 73.3675 144.612 73.3675H52.6035C46.658 73.3675 41.8215 78.2045 41.8215 84.1495V192.116C41.8215 198.061 46.6585 202.898 52.6035 202.898H107.981L101.206 229.749H94.733C93.352 229.749 92.233 230.869 92.233 232.249C92.233 233.63 93.352 234.749 94.733 234.749H161.267C162.648 234.749 163.767 233.63 163.767 232.249C163.767 230.869 162.648 229.749 161.267 229.749H154.794L148.018 202.898H203.396C209.342 202.898 214.178 198.061 214.178 192.116V84.149C214.178 78.204 209.342 73.367 203.396 73.367ZM176.384 175.822V69.0975C178.539 70.223 180.936 70.817 183.39 70.817C184.57 70.817 185.745 70.6735 186.888 70.4035V175.822H176.384ZM160.885 175.822V70.404C162.028 70.6735 163.203 70.817 164.384 70.817C166.837 70.817 169.23 70.2215 171.384 69.097V175.822H160.885ZM191.887 99.471H209.178V175.821H191.887V99.471ZM203.396 78.367C206.585 78.367 209.178 80.961 209.178 84.149V94.471H191.887V78.367H203.396ZM171.618 35.6965C172.243 34.3545 173.512 34.2505 173.886 34.2505C174.26 34.2505 175.529 34.3545 176.153 35.6965L180.762 45.607C178.696 46.8535 176.316 47.535 173.884 47.535C171.419 47.535 169.078 46.8685 167.008 45.6115L171.618 35.6965ZM161.584 57.2765L164.889 50.1695C167.623 51.7085 170.728 52.535 173.884 52.535C177.046 52.535 180.152 51.708 182.883 50.169L186.188 57.276C186.645 58.2595 186.887 59.3535 186.887 60.439V65.1975C185.774 65.6065 184.604 65.8165 183.389 65.8165C181.467 65.8165 179.596 65.2775 177.98 64.257C175.475 62.6765 172.282 62.6625 169.843 64.2235C168.214 65.2655 166.327 65.8165 164.383 65.8165C163.186 65.8165 161.999 65.6015 160.885 65.1955V60.4385C160.885 59.3535 161.127 58.26 161.584 57.2765ZM155.885 99.471V175.821H144.55V115.944C144.55 114.135 144.147 112.313 143.385 110.673L138.176 99.471H155.885ZM129.047 175.822V124.602C131.201 125.727 133.598 126.321 136.053 126.321C137.233 126.321 138.408 126.178 139.55 125.908V175.821L129.047 175.822ZM114.247 112.781L117.551 105.675C120.286 107.214 123.39 108.04 126.546 108.04C129.708 108.04 132.814 107.214 135.545 105.675L138.85 112.782C139.308 113.766 139.55 114.859 139.55 115.944V120.703C138.438 121.112 137.267 121.322 136.052 121.322C134.129 121.322 132.258 120.783 130.643 119.763C128.137 118.182 124.944 118.169 122.506 119.729C120.877 120.771 118.989 121.322 117.046 121.322C115.849 121.322 114.662 121.107 113.547 120.701V115.945C113.547 114.859 113.789 113.765 114.247 112.781ZM124.281 91.2015C124.905 89.8595 126.174 89.7555 126.548 89.7555C126.922 89.7555 128.192 89.8595 128.815 91.2015L133.424 101.112C131.358 102.358 128.978 103.04 126.546 103.04C124.082 103.04 121.74 102.374 119.67 101.117L124.281 91.2015ZM114.922 99.471L109.713 110.673C108.951 112.313 108.547 114.135 108.547 115.944V164.55C108.547 165.93 109.666 167.05 111.047 167.05C112.428 167.05 113.547 165.93 113.547 164.55V125.908C114.69 126.178 115.865 126.321 117.046 126.321C119.499 126.321 121.893 125.726 124.047 124.601V175.821H46.8215V99.471H114.922ZM149.637 229.749H106.362L113.137 202.898H142.862L149.637 229.749ZM203.396 197.898H52.6035C49.415 197.898 46.8215 195.304 46.8215 192.115V180.822H209.179V192.115C209.178 195.304 206.585 197.898 203.396 197.898Z" fill="#590BB2"/>
<path d="M136.573 66.1899C135.933 66.1899 135.293 65.9459 134.805 65.4579L129.308 59.9604C128.331 58.9839 128.331 57.4009 129.308 56.4249L134.805 50.9274C135.781 49.9514 137.365 49.9514 138.34 50.9274L143.838 56.4249C144.814 57.4014 144.814 58.9844 143.838 59.9604L138.34 65.4579C137.852 65.9459 137.212 66.1899 136.573 66.1899ZM134.611 58.1924L136.573 60.1544L138.535 58.1924L136.573 56.2304L134.611 58.1924Z" fill="#4747F5"/>
<path d="M64.0525 229.19C62.6715 229.19 61.5525 228.07 61.5525 226.69C61.5525 225.037 60.208 223.692 58.555 223.692C57.174 223.692 56.055 222.573 56.055 221.192C56.055 219.812 57.174 218.692 58.555 218.692C60.208 218.692 61.5525 217.348 61.5525 215.695C61.5525 214.314 62.6715 213.195 64.0525 213.195C65.4335 213.195 66.5525 214.314 66.5525 215.695C66.5525 217.348 67.897 218.692 69.55 218.692C70.931 218.692 72.05 219.812 72.05 221.192C72.05 222.573 70.931 223.692 69.55 223.692C67.897 223.692 66.5525 225.037 66.5525 226.69C66.5525 228.071 65.4335 229.19 64.0525 229.19Z" fill="#003399"/>
<path d="M114.799 49.9695C113.418 49.9695 112.299 48.85 112.299 47.4695C112.299 45.8165 110.955 44.472 109.302 44.472C107.921 44.472 106.802 43.3525 106.802 41.972C106.802 40.5915 107.921 39.472 109.302 39.472C110.955 39.472 112.299 38.1275 112.299 36.4745C112.299 35.094 113.418 33.9745 114.799 33.9745C116.18 33.9745 117.299 35.094 117.299 36.4745C117.299 38.1275 118.644 39.472 120.297 39.472C121.678 39.472 122.797 40.5915 122.797 41.972C122.797 43.3525 121.678 44.472 120.297 44.472C118.644 44.472 117.299 45.8165 117.299 47.4695C117.299 48.85 116.18 49.9695 114.799 49.9695Z" fill="#27D6FD"/>
<path d="M66.6505 61.6895C65.2695 61.6895 64.1505 60.57 64.1505 59.1895C64.1505 57.5365 62.806 56.192 61.153 56.192C59.772 56.192 58.653 55.0725 58.653 53.692C58.653 52.3115 59.772 51.192 61.153 51.192C62.806 51.192 64.1505 49.8475 64.1505 48.1945C64.1505 46.814 65.2695 45.6945 66.6505 45.6945C68.0315 45.6945 69.1505 46.814 69.1505 48.1945C69.1505 49.8475 70.495 51.192 72.148 51.192C73.529 51.192 74.648 52.3115 74.648 53.692C74.648 55.0725 73.529 56.192 72.148 56.192C70.495 56.192 69.1505 57.5365 69.1505 59.1895C69.1505 60.57 68.0315 61.6895 66.6505 61.6895Z" fill="#4747F5"/>
</g>
<defs>
<linearGradient id="paint0_linear" x1="-16.5" y1="127" x2="288.5" y2="127" gradientUnits="userSpaceOnUse">
<stop offset="0.000701121" stop-color="#00CCFF"/>
<stop offset="1" stop-color="#84E6FE" stop-opacity="0.32"/>
</linearGradient>
<clipPath id="clip0">
<rect width="256" height="256" fill="white"/>
</clipPath>
</defs>
</svg>
