<svg width="256" height="256" viewBox="0 0 256 256" fill="none" xmlns="http://www.w3.org/2000/svg">
<g clip-path="url(#clip0)">
<path d="M191.303 85.7575C191.207 85.757 191.11 85.7565 191.014 85.7565C174.997 85.7315 159.822 78.8345 149.294 66.7635C133.611 48.7815 110.494 37.4525 84.734 37.567C37.978 37.7745 -0.597521 77.0575 0.00697881 123.81C0.608479 170.303 38.4845 207.807 85.1205 207.807C98.292 207.807 110.763 204.814 121.894 199.471C131.491 194.865 142.926 196.08 151.378 202.552C162.309 210.925 175.973 215.909 190.801 215.934C226.492 215.993 255.791 186.924 255.999 151.233C256.208 115.209 227.278 85.9695 191.303 85.7575Z" fill="url(#paint0_linear)"/>
<path opacity="0.1" d="M139.497 177.995C140.878 177.995 141.997 176.876 141.997 175.496V171.169C141.997 169.789 140.878 168.67 139.497 168.67H138.997V160.492C138.997 157.733 136.758 155.493 133.999 155.493H122.001C119.241 155.493 117.002 157.733 117.002 160.492V168.67H116.502C115.121 168.67 114.003 169.789 114.003 171.169V175.496C114.003 176.876 115.121 177.995 116.502 177.995H117.002V216.546H116.502C115.121 216.546 114.003 217.665 114.003 219.046V223.372C114.003 224.753 115.121 225.872 116.502 225.872H117.002V233.857C117.002 236.621 119.241 238.856 122.001 238.856H133.999C136.758 238.856 138.997 236.621 138.997 233.857V225.872H139.497C140.878 225.872 141.997 224.753 141.997 223.372V219.046C141.997 217.665 140.878 216.546 139.497 216.546H138.997V177.995H139.497Z" fill="#590BB2"/>
<path opacity="0.1" d="M241.251 54.149H193.499C185.652 25.3325 159.303 4.14249 128 4.14249C96.697 4.14249 70.3475 25.3325 62.501 54.149H14.749C11.9895 54.149 9.75 56.3885 9.75 59.148V83.638C9.75 86.4025 11.9895 88.637 14.749 88.637H62.168C69.5785 118.097 96.2405 139.909 128 139.909C159.76 139.909 186.422 118.097 193.832 88.637H241.251C244.011 88.637 246.25 86.4025 246.25 83.638V59.148C246.25 56.3885 244.011 54.149 241.251 54.149V54.149Z" fill="#590BB2"/>
<path d="M128 150.408C165.491 150.408 195.883 120.016 195.883 82.5255C195.883 45.0347 165.491 14.6425 128 14.6425C90.5093 14.6425 60.117 45.0347 60.117 82.5255C60.117 120.016 90.5093 150.408 128 150.408Z" fill="#4747F5"/>
<path d="M246.25 69.648V94.138C246.25 96.9025 244.011 99.137 241.251 99.137H14.749C11.9895 99.137 9.75 96.9025 9.75 94.138V69.648C9.75 66.8885 11.9895 64.649 14.749 64.649H241.251C244.011 64.649 246.25 66.8885 246.25 69.648Z" fill="#F5F4F9"/>
<path d="M192.102 104.917C194.553 97.908 195.885 90.3735 195.885 82.525C195.885 78.86 195.595 75.265 195.035 71.755H60.965C60.405 75.265 60.115 78.86 60.115 82.525C60.115 90.374 61.447 97.908 63.8975 104.917H192.102Z" fill="#C182F9"/>
<path d="M195.88 82.5255C195.88 88.2545 195.17 93.823 193.831 99.137H62.169C60.8295 93.823 60.1195 88.2545 60.1195 82.5255C60.1195 76.337 60.9495 70.343 62.499 64.6495H193.501C195.05 70.343 195.88 76.3365 195.88 82.5255Z" fill="#27D6FD"/>
<path d="M43.8095 99.139H14.751C11.99 99.139 9.75201 96.901 9.75201 94.14V69.6475C9.75201 66.8865 11.99 64.6485 14.751 64.6485H43.8095V99.139Z" fill="#DDD9E4"/>
<path d="M138.998 170.992V244.356C138.998 247.121 136.758 249.355 133.999 249.355H122.001C119.242 249.355 117.002 247.121 117.002 244.356V170.992C117.002 168.232 119.242 165.992 122.001 165.992H133.999C136.758 165.992 138.998 168.232 138.998 170.992Z" fill="#00CCFF"/>
<path d="M117.002 184.418H138.998V193.741H117.002V184.418Z" fill="#0000FF"/>
<path d="M117.002 232.293H138.998V241.621H117.002V232.293Z" fill="#0000FF"/>
<path d="M139.497 188.495H116.502C115.122 188.495 114.003 187.376 114.003 185.995V181.669C114.003 180.289 115.122 179.169 116.502 179.169H139.497C140.878 179.169 141.997 180.289 141.997 181.669V185.995C141.997 187.376 140.878 188.495 139.497 188.495Z" fill="#FDFDFD"/>
<path d="M139.497 236.371H116.502C115.122 236.371 114.003 235.252 114.003 233.872V229.545C114.003 228.165 115.122 227.046 116.502 227.046H139.497C140.878 227.046 141.997 228.165 141.997 229.545V233.872C141.997 235.252 140.878 236.371 139.497 236.371Z" fill="#FDFDFD"/>
<path d="M107.338 91.1515C106.429 91.1515 105.584 90.656 105.143 89.8465L103.04 85.981L100.936 89.8465C100.46 90.723 99.5075 91.2295 98.5125 91.141C97.5185 91.0495 96.674 90.376 96.3645 89.4275L92.364 77.1745C91.9355 75.8625 92.652 74.4515 93.9645 74.023C95.276 73.596 96.688 74.311 97.116 75.6235L99.3165 82.364L100.844 79.5575C101.282 78.753 102.124 78.2525 103.04 78.2525C103.955 78.2525 104.798 78.753 105.235 79.5575L106.763 82.364L108.963 75.6235C109.392 74.3115 110.804 73.594 112.115 74.023C113.427 74.4515 114.144 75.8625 113.715 77.1745L109.714 89.4275C109.405 90.376 108.56 91.0495 107.566 91.141C107.49 91.148 107.414 91.1515 107.338 91.1515V91.1515Z" fill="#590BB2"/>
<path d="M132.299 91.1515C131.389 91.1515 130.544 90.656 130.104 89.8465L128 85.9815L125.897 89.847C125.42 90.7235 124.47 91.23 123.473 91.1415C122.479 91.05 121.635 90.3765 121.325 89.428L117.325 77.175C116.896 75.863 117.613 74.452 118.925 74.0235C120.238 73.5965 121.648 74.3115 122.077 75.624L124.277 82.3645L125.805 79.558C126.242 78.7535 127.085 78.253 128 78.253C128.916 78.253 129.758 78.7535 130.196 79.558L131.723 82.3645L133.924 75.624C134.352 74.312 135.765 73.5945 137.075 74.0235C138.387 74.452 139.104 75.863 138.675 77.175L134.675 89.428C134.365 90.3765 133.521 91.05 132.527 91.1415C132.45 91.148 132.374 91.1515 132.299 91.1515V91.1515Z" fill="#590BB2"/>
<path d="M157.259 91.1515C156.35 91.1515 155.505 90.656 155.064 89.8465L152.961 85.981L150.857 89.8465C150.381 90.723 149.43 91.2295 148.434 91.141C147.44 91.0495 146.595 90.376 146.286 89.4275L142.285 77.1745C141.857 75.8625 142.573 74.4515 143.886 74.023C145.198 73.596 146.609 74.311 147.037 75.6235L149.238 82.364L150.765 79.5575C151.203 78.753 152.045 78.2525 152.961 78.2525C153.876 78.2525 154.719 78.753 155.156 79.5575L156.684 82.364L158.884 75.6235C159.313 74.3115 160.724 73.594 162.036 74.023C163.348 74.4515 164.065 75.8625 163.636 77.1745L159.636 89.4275C159.326 90.376 158.482 91.0495 157.488 91.141C157.411 91.148 157.335 91.1515 157.259 91.1515V91.1515Z" fill="#590BB2"/>
<path d="M128 137.447C146.946 137.447 164.309 127.874 174.449 111.84C175.187 110.673 174.839 109.129 173.672 108.391C172.503 107.653 170.961 108.002 170.223 109.168C161.005 123.745 145.221 132.447 128 132.447C110.78 132.447 94.995 123.745 85.777 109.168C85.0395 108.001 83.4965 107.653 82.328 108.391C81.1615 109.129 80.8135 110.673 81.5515 111.839C91.691 127.875 109.055 137.447 128 137.447Z" fill="#590BB2"/>
<path d="M174.449 53.2105C164.309 37.176 146.945 27.6035 128 27.6035C109.056 27.6035 91.691 37.1765 81.5515 53.2105C80.813 54.3775 81.1615 55.922 82.328 56.6595C83.495 57.3965 85.0395 57.0495 85.777 55.883C94.9955 41.306 110.78 32.603 128 32.603C145.22 32.603 161.005 41.3055 170.223 55.883C170.699 56.635 171.509 57.047 172.338 57.047C172.795 57.047 173.257 56.9215 173.672 56.6595C174.839 55.9215 175.187 54.3775 174.449 53.2105V53.2105Z" fill="#590BB2"/>
<path d="M241.249 62.1485H195.371C186.612 33.244 159.726 12.1425 128 12.1425C96.2745 12.1425 69.388 33.244 60.629 62.1485H14.751C10.616 62.1485 7.25201 65.513 7.25201 69.6475V94.14C7.25201 98.275 10.6165 101.639 14.751 101.639H60.256C68.3875 130.421 94.4115 151.768 125.5 152.859V163.492H122.002C117.867 163.492 114.503 166.856 114.503 170.991V177.089C112.739 177.863 111.503 179.623 111.503 181.668V185.995C111.503 188.04 112.739 189.801 114.503 190.574V224.965C112.739 225.739 111.503 227.499 111.503 229.544V233.871C111.503 235.916 112.739 237.677 114.503 238.45V244.357C114.503 248.492 117.867 251.856 122.002 251.856H133.999C138.134 251.856 141.498 248.491 141.498 244.357V238.45C143.261 237.676 144.497 235.916 144.497 233.871V229.544C144.497 227.499 143.261 225.738 141.498 224.965V202.265C141.498 200.884 140.379 199.765 138.998 199.765C137.617 199.765 136.498 200.884 136.498 202.265V224.546H119.503V190.995H139.498C142.255 190.995 144.497 188.752 144.497 185.995V181.669C144.497 179.623 143.261 177.863 141.498 177.09V170.991C141.498 166.856 138.133 163.492 133.999 163.492H130.5V152.86C161.589 151.768 187.613 130.422 195.745 101.639H241.25C245.385 101.639 248.749 98.275 248.749 94.1405V69.648C248.748 65.5125 245.384 62.1485 241.249 62.1485V62.1485ZM139.497 229.545L139.501 233.871L116.503 233.871L116.503 229.545L139.497 229.545ZM133.999 246.857H122.002C120.624 246.857 119.503 245.736 119.503 244.358V238.871H136.498V244.358C136.498 245.736 135.377 246.857 133.999 246.857ZM116.503 185.995L116.503 181.669L139.497 181.669L139.501 185.995L116.503 185.995ZM136.498 170.991V176.669H119.503V170.991C119.503 169.613 120.624 168.492 122.002 168.492H133.999C135.377 168.492 136.498 169.613 136.498 170.991V170.991ZM128 17.1425C156.94 17.1425 181.544 36.044 190.128 62.1485H65.8725C74.456 36.044 99.06 17.1425 128 17.1425ZM12.252 94.14V69.6475C12.252 68.2695 13.373 67.1485 14.751 67.1485H41.3095V96.639H14.751C13.373 96.639 12.252 95.518 12.252 94.14V94.14ZM46.3095 96.639V67.1485H59.314C58.206 72.1 57.6175 77.245 57.6175 82.526C57.6175 87.3585 58.1075 92.0785 59.0395 96.6395H46.3095V96.639ZM128 147.908C91.948 147.908 62.617 118.578 62.617 82.5255C62.617 77.23 63.2545 72.0815 64.448 67.148H191.552C192.746 72.0815 193.383 77.23 193.383 82.5255C193.383 87.37 192.848 92.092 191.844 96.639H75.8955C74.5145 96.639 73.3955 97.758 73.3955 99.139C73.3955 100.52 74.5145 101.639 75.8955 101.639H190.531C182.336 128.395 157.405 147.908 128 147.908ZM243.748 94.14C243.748 95.518 242.627 96.639 241.249 96.639H196.961C197.893 92.078 198.383 87.358 198.383 82.5255C198.383 77.2445 197.794 72.0995 196.686 67.148H241.249C242.627 67.148 243.748 68.269 243.748 69.647V94.14Z" fill="#590BB2"/>
<path d="M34.395 74.8515C31.389 71.8445 26.4975 71.8445 23.4915 74.8515C21.1045 77.238 20.62 80.811 22.0235 83.6875L18.481 87.23C17.5045 88.206 17.5045 89.789 18.481 90.765C18.969 91.2535 19.609 91.4975 20.2485 91.4975C20.888 91.4975 21.5285 91.2535 22.016 90.765L25.5585 87.2225C26.6235 87.742 27.782 88.0095 28.943 88.0095C30.9175 88.0095 32.8915 87.258 34.3945 85.7545C37.4015 82.749 37.4015 77.8575 34.395 74.8515ZM30.86 82.2195C29.8035 83.276 28.0835 83.276 27.027 82.2195C25.9705 81.163 25.9705 79.443 27.027 78.3865C27.5555 77.858 28.2495 77.594 28.9435 77.594C29.6375 77.594 30.3315 77.858 30.86 78.3865C31.9165 79.443 31.9165 81.163 30.86 82.2195V82.2195Z" fill="#590BB2"/>
<path d="M190.383 166.876C189.002 166.876 187.883 165.757 187.883 164.376C187.883 162.723 186.538 161.378 184.885 161.378C183.504 161.378 182.385 160.259 182.385 158.878C182.385 157.497 183.504 156.378 184.885 156.378C186.538 156.378 187.883 155.033 187.883 153.38C187.883 151.999 189.002 150.88 190.383 150.88C191.764 150.88 192.883 151.999 192.883 153.38C192.883 155.033 194.227 156.378 195.88 156.378C197.261 156.378 198.38 157.497 198.38 158.878C198.38 160.259 197.261 161.378 195.88 161.378C194.227 161.378 192.883 162.723 192.883 164.376C192.883 165.756 191.764 166.876 190.383 166.876Z" fill="#0000FF"/>
<path d="M206.181 50.3225C204.8 50.3225 203.681 49.2035 203.681 47.8225C203.681 46.1695 202.337 44.825 200.684 44.825C199.303 44.825 198.184 43.706 198.184 42.325C198.184 40.944 199.303 39.825 200.684 39.825C202.337 39.825 203.681 38.4805 203.681 36.8275C203.681 35.4465 204.8 34.3275 206.181 34.3275C207.562 34.3275 208.681 35.4465 208.681 36.8275C208.681 38.4805 210.025 39.825 211.678 39.825C213.059 39.825 214.178 40.944 214.178 42.325C214.178 43.706 213.059 44.825 211.678 44.825C210.025 44.825 208.681 46.1695 208.681 47.8225C208.681 49.2035 207.562 50.3225 206.181 50.3225Z" fill="#590BB2"/>
<path d="M43.8095 130.724C42.4285 130.724 41.3095 129.605 41.3095 128.224C41.3095 126.571 39.965 125.226 38.312 125.226C36.931 125.226 35.812 124.107 35.812 122.726C35.812 121.345 36.931 120.226 38.312 120.226C39.965 120.226 41.3095 118.882 41.3095 117.229C41.3095 115.848 42.4285 114.729 43.8095 114.729C45.1905 114.729 46.3095 115.848 46.3095 117.229C46.3095 118.882 47.654 120.226 49.307 120.226C50.688 120.226 51.807 121.345 51.807 122.726C51.807 124.107 50.688 125.226 49.307 125.226C47.654 125.226 46.3095 126.571 46.3095 128.224C46.3095 129.605 45.1905 130.724 43.8095 130.724Z" fill="#0000FF"/>
<path d="M60.117 162.494C59.4775 162.494 58.837 162.25 58.3495 161.762L52.8525 156.264C51.876 155.288 51.876 153.706 52.8525 152.73L58.3495 147.232C59.325 146.256 60.909 146.256 61.8845 147.232L67.3815 152.73C68.358 153.706 68.358 155.288 67.3815 156.264L61.8845 161.762C61.397 162.25 60.757 162.494 60.117 162.494V162.494ZM58.1555 154.497L60.117 156.458L62.0785 154.497L60.117 152.536L58.1555 154.497Z" fill="#590BB2"/>
</g>
<defs>
<linearGradient id="paint0_linear" x1="-20.5" y1="138.5" x2="272" y2="149" gradientUnits="userSpaceOnUse">
<stop offset="0.000701121" stop-color="#00CCFF"/>
<stop offset="1" stop-color="#84E6FE" stop-opacity="0.52"/>
</linearGradient>
<clipPath id="clip0">
<rect width="256" height="256" fill="white"/>
</clipPath>
</defs>
</svg>
